<?xml version="1.0" encoding="UTF-8"?>
<svg version="1.1" xmlns="http://www.w3.org/2000/svg" width="500" height="500">
<path d="M0 0 C2.78349285 2.19577589 5.38392469 4.49575083 7.9765625 6.9140625 C8.50813965 7.39939453 9.0397168 7.88472656 9.58740234 8.38476562 C19.55854006 17.55741668 27.31446831 27.78706486 34.9765625 38.9140625 C44.61556115 54.05230454 44.61556115 54.05230454 59.51953125 62.51171875 C60.33035156 62.64449219 61.14117187 62.77726562 61.9765625 62.9140625 C63.24886719 63.18089844 63.24886719 63.18089844 64.546875 63.453125 C101.02865536 68.35614332 140.68230728 58.39388343 176.41070557 52.18400574 C177.37997986 52.01661392 178.34925415 51.84922211 179.34790039 51.67675781 C180.1971962 51.5289386 181.046492 51.38111938 181.92152405 51.2288208 C183.9765625 50.9140625 183.9765625 50.9140625 185.9765625 50.9140625 C185.9765625 51.5740625 185.9765625 52.2340625 185.9765625 52.9140625 C175.65307847 57.35489083 165.30907336 61.32993624 154.47265625 64.33984375 C153.40152588 64.63800995 152.33039551 64.93617615 151.22680664 65.24337769 C138.7684854 68.62645241 126.14664628 71.09902957 113.4765625 73.5390625 C111.15216086 73.99385795 108.82794151 74.44958603 106.50390625 74.90625 C97.36581933 76.69853824 88.22774338 78.48908271 79.078125 80.22167969 C76.86715034 80.64759361 74.65621139 81.07369294 72.4453125 81.5 C71.4512439 81.68422516 70.45717529 81.86845032 69.4329834 82.05825806 C59.35904898 84.01828834 49.38444633 86.66523408 41.8515625 93.9765625 C38.03581744 99.9545631 36.29262513 106.82394204 34.32299805 113.58764648 C26.33761744 140.55097216 8.80568462 162.48956853 -15.87109375 176.06640625 C-43.364288 190.64511372 -72.8361491 193.835083 -102.65234375 184.81640625 C-115.29000192 180.24203918 -126.94336448 173.80824457 -137.0234375 164.9140625 C-137.84199219 164.22699219 -138.66054687 163.53992188 -139.50390625 162.83203125 C-147.03090093 156.3553149 -153.16918814 148.91361372 -159.21875 141.06640625 C-164.12061025 134.73871973 -167.79223951 130.12970776 -176.0859375 129.0390625 C-186.48758357 128.53327421 -196.81807726 131.22650389 -206.98974609 133.17358398 C-240.85231201 139.637771 -240.85231201 139.637771 -249.0234375 136.9140625 C-249.0234375 135.5940625 -249.0234375 134.2740625 -249.0234375 132.9140625 C-249.69463623 133.09364502 -250.36583496 133.27322754 -251.05737305 133.45825195 C-259.19614925 135.57047601 -267.37416658 137.20956792 -275.64331055 138.70385742 C-277.85153095 139.10439089 -280.05755701 139.51577992 -282.26367188 139.92773438 C-283.68998455 140.18815599 -285.11641301 140.44794443 -286.54296875 140.70703125 C-288.44719604 141.05544067 -288.44719604 141.05544067 -290.38989258 141.41088867 C-293.98590294 141.90886471 -297.39838481 142.00424375 -301.0234375 141.9140625 C-297.23141333 138.32694251 -292.80260062 137.62955619 -287.8671875 136.5234375 C-286.94756226 136.31128601 -286.02793701 136.09913452 -285.08044434 135.8805542 C-273.62904895 133.29306443 -262.07755318 131.23156812 -250.5234375 129.1640625 C-248.30068366 128.76225825 -246.07802686 128.3599168 -243.85546875 127.95703125 C-240.74468157 127.39320767 -237.63378568 126.83011651 -234.52209473 126.27130127 C-233.60923706 126.10732849 -232.69637939 125.94335571 -231.75585938 125.77441406 C-230.959823 125.63183167 -230.16378662 125.48924927 -229.34362793 125.34234619 C-226.89885358 124.89106557 -224.46123596 124.40162219 -222.0234375 123.9140625 C-226.3134375 123.9140625 -230.6034375 123.9140625 -235.0234375 123.9140625 C-231.15132627 121.00997908 -228.62025896 120.06326786 -224.0234375 118.9140625 C-224.0234375 117.9240625 -224.0234375 116.9340625 -224.0234375 115.9140625 C-221.53172959 114.17614858 -219.080686 112.62263233 -216.4609375 111.1015625 C-196.79848856 99.57033673 -189.21957921 81.2581875 -180.66772461 60.99780273 C-166.44017474 27.31854825 -145.28478047 0.65526264 -111.0234375 -14.0859375 C-74.26811368 -28.02792484 -32.25801692 -22.25553106 0 0 Z M-113.0234375 3.9140625 C-107.19398787 3.33441101 -101.91873396 2.16024549 -96.3359375 0.4140625 C-94.87431543 -0.03586514 -93.41208911 -0.48383522 -91.94921875 -0.9296875 C-91.31411377 -1.12755859 -90.67900879 -1.32542969 -90.0246582 -1.52929688 C-85.04580888 -2.91416652 -80.24854492 -3.28243297 -75.09765625 -3.40234375 C-74.35006546 -3.42312485 -73.60247467 -3.44390594 -72.83222961 -3.46531677 C-70.45855354 -3.53037939 -68.08477263 -3.5894946 -65.7109375 -3.6484375 C-64.09569255 -3.69166396 -62.48045797 -3.73527954 -60.86523438 -3.77929688 C-56.91807451 -3.88601601 -52.97080983 -3.98740369 -49.0234375 -4.0859375 C-52.38836921 -6.32922531 -53.53916979 -6.3424812 -57.4765625 -6.3515625 C-58.56324219 -6.35591309 -59.64992187 -6.36026367 -60.76953125 -6.36474609 C-61.92582031 -6.35523926 -63.08210938 -6.34573242 -64.2734375 -6.3359375 C-66.04654297 -6.32361084 -66.04654297 -6.32361084 -67.85546875 -6.31103516 C-92.00810158 -6.15039846 -92.00810158 -6.15039846 -113.0234375 3.9140625 Z M-126.0234375 42.9140625 C-134.71319719 52.91633797 -143.36046925 67.51662814 -145.0234375 80.9140625 C-144.72100431 82.25474257 -144.39165521 83.58993841 -144.0234375 84.9140625 C-143.68517944 83.971073 -143.68517944 83.971073 -143.34008789 83.0090332 C-138.83986309 70.61272236 -134.58324449 59.12711741 -126.0234375 48.9140625 C-125.41242188 48.17542969 -124.80140625 47.43679687 -124.171875 46.67578125 C-116.34081719 38.09494131 -105.0688515 31.29949899 -94.0234375 27.9140625 C-93.08757812 27.61757812 -92.15171875 27.32109375 -91.1875 27.015625 C-73.12879335 22.05744106 -52.36225088 23.99639079 -35.859375 33.0390625 C-24.27851389 40.69583018 -16.93908035 50.9667433 -9.71484375 62.640625 C-4.24065273 71.4485834 0.30155634 78.51210699 10.73828125 81.44140625 C18.93949244 83.17325015 26.31863599 81.04637444 33.9765625 77.9140625 C35.89812847 76.58026287 35.89812847 76.58026287 36.9765625 74.9140625 C36.74612386 72.25940201 36.74612386 72.25940201 35.9765625 69.9140625 C30.9863594 67.96666617 26.32877106 67.04897642 21.0390625 68.4140625 C17.53631335 69.26321381 14.48391026 69.77097133 10.9765625 68.9140625 C6.25918412 65.49614715 3.30215977 59.94810727 0.07592773 55.18554688 C-12.39676607 36.77522104 -27.22626402 23.51925322 -49.6953125 18.87890625 C-78.69777983 13.53952754 -105.5105454 21.49790384 -126.0234375 42.9140625 Z M-148.0234375 26.9140625 C-161.02871302 40.29338356 -174.52275126 62.19609083 -175.1328125 81.34765625 C-175.09671875 82.19457031 -175.060625 83.04148437 -175.0234375 83.9140625 C-173.05196707 80.95685686 -172.03327703 78.43792623 -170.8515625 75.1015625 C-170.22507813 73.36326172 -170.22507813 73.36326172 -169.5859375 71.58984375 C-168.72259977 69.17198422 -167.86311385 66.75274527 -167.0078125 64.33203125 C-163.07566543 53.45868553 -158.14960952 43.92511324 -151.1484375 34.7265625 C-150.65085938 34.06076172 -150.15328125 33.39496094 -149.640625 32.70898438 C-148.44121634 31.10592858 -147.23328586 29.50925402 -146.0234375 27.9140625 C-146.6834375 27.5840625 -147.3434375 27.2540625 -148.0234375 26.9140625 Z M-116.0234375 43.9140625 C-116.90902344 44.69394531 -117.79460937 45.47382813 -118.70703125 46.27734375 C-133.39460951 60.02785045 -141.31601583 77.87041685 -143.0234375 97.9140625 C-143.15402088 101.92162138 -143.153403 105.90679284 -143.0234375 109.9140625 C-138.30349378 111.30477598 -134.06602835 110.5096424 -129.32421875 109.69140625 C-128.46982712 109.55106964 -127.61543549 109.41073303 -126.7351532 109.2661438 C-123.93385751 108.80348605 -121.13494416 108.32785733 -118.3359375 107.8515625 C-116.37574311 107.52410662 -114.41545551 107.19720817 -112.45507812 106.87084961 C-106.64210425 105.89933168 -100.83240152 104.90923988 -95.0234375 103.9140625 C-94.22742126 103.77810669 -93.43140503 103.64215088 -92.61126709 103.5020752 C-82.86449241 101.83643516 -73.12882641 100.1131377 -63.40002441 98.34564209 C-60.8134394 97.8759276 -58.22653505 97.40799187 -55.63964844 96.93994141 C-50.83847486 96.06999308 -46.03870804 95.19258008 -41.23974609 94.31051636 C-39.3800072 93.96920601 -37.5199906 93.6294045 -35.65966797 93.29129028 C-24.32980285 91.22854969 -13.15581612 88.86850713 -2.0234375 85.9140625 C-2.9631778 79.81804366 -6.00371659 75.08591542 -9.0234375 69.7890625 C-9.61358643 68.75313965 -10.20373535 67.7172168 -10.81176758 66.64990234 C-14.98547257 59.44774746 -19.18805174 52.89744718 -25.0234375 46.9140625 C-25.77625 46.12257813 -26.5290625 45.33109375 -27.3046875 44.515625 C-39.19452164 32.89601436 -55.54102358 26.99469299 -72.0234375 26.4140625 C-88.45558862 26.97552552 -103.7125649 32.99687359 -116.0234375 43.9140625 Z M-19.0546875 99.78515625 C-21.05501027 100.19482833 -23.05542146 100.60406883 -25.0559082 101.01293945 C-26.10783356 101.2310025 -27.15975891 101.44906555 -28.24356079 101.67373657 C-51.19742475 106.41742834 -74.22505871 110.32856122 -97.40625 113.78100586 C-108.18025081 115.40098097 -118.87001205 117.16253152 -129.50390625 119.55078125 C-130.42553055 119.75629105 -131.34715485 119.96180084 -132.29670715 120.17353821 C-136.12145498 121.06816606 -138.7083202 121.7039843 -142.0234375 123.9140625 C-141.36510018 129.18977937 -139.35941023 130.91158991 -135.36328125 134.15625 C-114.72575147 149.66023732 -85.18274271 154.39211316 -60.00366211 151.14477539 C-44.95198915 148.9302659 -32.20332082 144.20875607 -20.0234375 134.9140625 C-18.93482422 134.10001953 -18.93482422 134.10001953 -17.82421875 133.26953125 C-8.8828616 126.04969277 1.46301486 113.70081473 2.9765625 101.9140625 C2.6465625 100.9240625 2.3165625 99.9340625 1.9765625 98.9140625 C-4.15699632 95.84728309 -12.69419287 98.42327237 -19.0546875 99.78515625 Z M-202.0234375 110.9140625 C-198.09268106 110.33953504 -198.09268106 110.33953504 -195.0234375 107.9140625 C-198.54060053 107.9140625 -199.39465498 108.73851835 -202.0234375 110.9140625 Z M-218.0234375 121.9140625 C-214.0234375 122.9140625 -214.0234375 122.9140625 -214.0234375 122.9140625 Z M23.9765625 124.9140625 C24.9765625 126.9140625 24.9765625 126.9140625 24.9765625 126.9140625 Z M22.9765625 126.9140625 C23.9765625 128.9140625 23.9765625 128.9140625 23.9765625 128.9140625 Z M21.9765625 128.9140625 C22.9765625 130.9140625 22.9765625 130.9140625 22.9765625 130.9140625 Z M20.9765625 130.9140625 C20.9765625 133.9140625 20.9765625 133.9140625 20.9765625 133.9140625 Z M18.9765625 133.9140625 C17.9246875 135.29078125 17.9246875 135.29078125 16.8515625 136.6953125 C-2.17397882 161.40122618 -26.20751712 176.86662726 -57.0234375 181.9140625 C-57.0234375 182.2440625 -57.0234375 182.5740625 -57.0234375 182.9140625 C-35.5560682 183.62599056 -12.49446029 171.10113583 2.9765625 156.9140625 C9.50502434 150.73165674 15.77714423 143.92505468 19.9765625 135.9140625 C19.4815625 134.9240625 19.4815625 134.9240625 18.9765625 133.9140625 Z M-58.3359375 168.2890625 C-59.25439453 168.41539062 -60.17285156 168.54171875 -61.11914062 168.671875 C-61.99119141 168.80078125 -62.86324219 168.9296875 -63.76171875 169.0625 C-64.55618408 169.17770996 -65.35064941 169.29291992 -66.16918945 169.41162109 C-66.78109131 169.57742676 -67.39299316 169.74323242 -68.0234375 169.9140625 C-68.3534375 170.5740625 -68.6834375 171.2340625 -69.0234375 171.9140625 C-59.62797519 171.5418379 -51.08688423 170.59765287 -42.0234375 167.9140625 C-42.0234375 167.5840625 -42.0234375 167.2540625 -42.0234375 166.9140625 C-47.56935814 166.71172377 -52.86847697 167.47384258 -58.3359375 168.2890625 Z M-119.0234375 171.9140625 C-102.7065406 185.79375202 -76.84794937 184.33530907 -57.0234375 183.9140625 C-57.0234375 183.5840625 -57.0234375 183.2540625 -57.0234375 182.9140625 C-57.70220947 182.89947998 -58.38098145 182.88489746 -59.08032227 182.86987305 C-77.86420592 182.41995015 -97.16519947 181.56359168 -114.26171875 172.76171875 C-116.14815648 171.69727485 -116.14815648 171.69727485 -119.0234375 171.9140625 Z " fill="#F5F5F5" transform="translate(307.0234375,196.0859375)"/>
<path d="M0 0 C3.63467079 1.62400184 4.77408696 2.66113044 7 6 C7.25 8.5625 7.25 8.5625 7 11 C6.34 11.66 5.68 12.32 5 13 C3.68 13 2.36 13 1 13 C1.57584432 10.61435923 2.22227595 8.33317216 3 6 C-5.71247285 7.11658046 -13.22668523 14.40325203 -18.62890625 20.984375 C-21.64231719 25.41434664 -23 29.59677854 -23 35 C-14.84214991 33.45000848 -9.22831194 31.46590088 -3 26 C-1.08773711 24.41135083 0.82916891 22.82827865 2.75 21.25 C3.65234375 20.49203125 4.5546875 19.7340625 5.484375 18.953125 C7.62149268 17.29387214 9.53611536 16.08226709 12 15 C13 16 13 16 13.6875 19.5625 C13.64880831 22.66336273 13.25662958 23.72309615 11.12109375 26.02734375 C8.47592237 28.11781566 5.7583838 30.06167625 3 32 C1.11510103 33.48754189 -0.76043978 34.98704257 -2.625 36.5 C-4.08333333 37.66666667 -5.54166667 38.83333333 -7 40 C-6.32453125 39.79503906 -5.6490625 39.59007812 -4.953125 39.37890625 C-4.06109375 39.10949219 -3.1690625 38.84007812 -2.25 38.5625 C-1.36828125 38.29566406 -0.4865625 38.02882812 0.421875 37.75390625 C2.60565835 37.11531506 4.78835498 36.53224167 7 36 C7.3125 38.75 7.3125 38.75 7 42 C4.77538218 44.16607525 2.76622478 45.61688761 0 47 C0.59167969 46.86722656 1.18335938 46.73445313 1.79296875 46.59765625 C5.85446525 45.68994822 9.91374171 44.7908887 14 44 C14 46.6875 14 46.6875 13 50 C10.51980792 52.02924807 7.84381248 53.5359872 5 55 C11.7578336 53.793244 17.8835423 51.65190982 24.23828125 49.12060547 C28.15572661 47.58531254 31.79283989 46.5299844 36 46 C36.6875 48.3125 36.6875 48.3125 37 51 C34.80015366 53.91331002 32.16727343 54.9240139 28.8125 56.1875 C27.91144531 56.53167969 27.01039063 56.87585938 26.08203125 57.23046875 C25.39496094 57.48441406 24.70789063 57.73835938 24 58 C24.49757813 58.60714844 24.99515625 59.21429688 25.5078125 59.83984375 C27 62 27 62 26.875 64.5625 C25.95952916 67.1127402 25.06699293 68.2924841 23 70 C24.32 70.66 25.64 71.32 27 72 C25.39673958 73.60326042 23.71699591 73.24749549 21.5 73.3125 C16.09800508 73.25031876 11.45212172 72.1684436 7 69 C6.125 66.375 6.125 66.375 6 64 C5.01 63.34 4.02 62.68 3 62 C3.33 60.68 3.66 59.36 4 58 C2.68 57.67 1.36 57.34 0 57 C-0.38218767 55.34385343 -0.71395102 53.67542976 -1 52 C-0.67 51.67 -0.34 51.34 0 51 C-1.134375 50.731875 -2.26875 50.46375 -3.4375 50.1875 C-4.613125 49.795625 -5.78875 49.40375 -7 49 C-7.33 48.01 -7.66 47.02 -8 46 C-7.67 45.34 -7.34 44.68 -7 44 C-7.804375 43.773125 -8.60875 43.54625 -9.4375 43.3125 C-10.283125 42.879375 -11.12875 42.44625 -12 42 C-12.8125 39.375 -12.8125 39.375 -13 37 C-15.81393694 36.85795584 -15.81393694 36.85795584 -17.6875 37.5 C-22.20900146 38.47762194 -26.3592218 38.96763843 -30.4375 36.5625 C-32.7481725 32.7729971 -33.2781767 29.414225 -33 25 C-30.44181439 15.16816723 -21.11443831 7.20528523 -12.84765625 2.05859375 C-8.53791979 -0.41062101 -4.91941418 -0.48513254 0 0 Z M7 62 C10.55622963 64.13373778 13.8841194 64.71116627 18 65 C20.84902067 64.18028284 20.84902067 64.18028284 23 63 C23 62.34 23 61.68 23 61 C17.90229581 58.45114791 12.169329 60.57397821 7 62 Z " fill="#E2E2E2" transform="translate(347,156)"/>
<path d="M0 0 C1.32 0.66 2.64 1.32 4 2 C4.99184231 5.58589143 5.18429132 7.44712603 4 11 C4.62648438 11.25394531 5.25296875 11.50789062 5.8984375 11.76953125 C6.71570313 12.11371094 7.53296875 12.45789063 8.375 12.8125 C9.59316406 13.31716797 9.59316406 13.31716797 10.8359375 13.83203125 C13 15 13 15 15 18 C14.43796875 17.85691406 13.8759375 17.71382812 13.296875 17.56640625 C10.95454547 16.98879098 8.60582341 16.45716693 6.25 15.9375 C5.45078125 15.76089844 4.6515625 15.58429688 3.828125 15.40234375 C3.22484375 15.26957031 2.6215625 15.13679687 2 15 C1.87882812 15.56847656 1.75765625 16.13695312 1.6328125 16.72265625 C0.58677946 21.54245464 -0.59204484 26.2732934 -2 31 C1.62542917 26.87103901 4.38888348 22.83540096 7 18 C8.32 18.33 9.64 18.66 11 19 C11.3152595 24.98993047 10.68219822 28.63560356 8 34 C10.41850323 31.754247 12.23468372 29.6444186 14.0625 26.875 C16 24 16 24 19 22 C25.18482344 21.44778362 25.18482344 21.44778362 27.9375 23.3125 C29 25 29 25 29 28 C28.01 28.33 27.02 28.66 26 29 C26.33 29.33 26.66 29.66 27 30 C27.04063832 31.66617115 27.042721 33.33388095 27 35 C27.66 35 28.32 35 29 35 C30.44074715 33.217871 31.80510649 31.37339724 33.125 29.5 C34.21167969 27.96859375 34.21167969 27.96859375 35.3203125 26.40625 C35.87460937 25.6121875 36.42890625 24.818125 37 24 C40 26 40 26 40.6875 28.125 C40.790625 28.74375 40.89375 29.3625 41 30 C43.31 29.67 45.62 29.34 48 29 C48.62925559 34.03404473 48.10379244 36.35011137 45 40.4375 C44.01580259 41.63812971 43.02080074 42.83033248 42 44 C46.20128793 41.23240532 46.20128793 41.23240532 50.25 38.25 C52 37 52 37 54 37 C52.48626976 40.85313152 50.51632085 42.83035522 47 45 C44.00627562 45.60778633 41.04917893 45.86713817 38 46 C36.8125 43.875 36.8125 43.875 36 41 C37.375 37.6875 37.375 37.6875 39 35 C36.35247996 37.57784846 34.05567935 39.91648098 32 43 C30.0625 42.6875 30.0625 42.6875 28 42 C27.67 41.01 27.34 40.02 27 39 C26.154375 39.350625 25.30875 39.70125 24.4375 40.0625 C20.50300556 41.13554394 17.95011792 40.91156567 14 40 C13.34 39.34 12.68 38.68 12 38 C12 37.01 12 36.02 12 35 C11.01 35.66 10.02 36.32 9 37 C6.5 37.4375 6.5 37.4375 4 37 C2.1875 34.5 2.1875 34.5 1 32 C0.608125 32.515625 0.21625 33.03125 -0.1875 33.5625 C-0.785625 34.036875 -1.38375 34.51125 -2 35 C-4.5 34.6875 -4.5 34.6875 -7 34 C-7.99 34 -8.98 34 -10 34 C-10.474375 34.515625 -10.94875 35.03125 -11.4375 35.5625 C-11.953125 36.036875 -12.46875 36.51125 -13 37 C-15.125 36.875 -15.125 36.875 -17 36 C-17.495 34.515 -17.495 34.515 -18 33 C-18.556875 33.495 -19.11375 33.99 -19.6875 34.5 C-22.45122422 36.29268598 -23.76822531 36.58006212 -27 36 C-29 34.5625 -29 34.5625 -30 32 C-29.12487739 26.13667854 -26.80502484 21.57583244 -22 18 C-18.875 17 -18.875 17 -16 17 C-14.125 18.4375 -14.125 18.4375 -13 20 C-13.5775 20.2475 -14.155 20.495 -14.75 20.75 C-20.07838076 23.71021153 -21.89348677 27.52306561 -24 33 C-23.01 33 -22.02 33 -21 33 C-20.731875 32.113125 -20.46375 31.22625 -20.1875 30.3125 C-19.08289181 27.23122452 -17.77150856 24.73778595 -16 22 C-14.35 22.33 -12.7 22.66 -11 23 C-11.33 26.3 -11.66 29.6 -12 33 C-7.67252734 23.824893 -7.67252734 23.824893 -6 14 C-8.64 13.01 -11.28 12.02 -14 11 C-14 10.34 -14 9.68 -14 9 C-6.375 9.875 -6.375 9.875 -3 11 C-2.01 7.37 -1.02 3.74 0 0 Z M21 29 C17.80846134 32.74091175 17.80846134 32.74091175 17.25 37.375 C17.4975 37.91125 17.745 38.4475 18 39 C19.65 38.34 21.3 37.68 23 37 C23 34.36 23 31.72 23 29 C22.34 29 21.68 29 21 29 Z M24 32 C25 34 25 34 25 34 Z " fill="#DEDEDE" transform="translate(254,126)"/>
<path d="M0 0 C0.99 0.33 1.98 0.66 3 1 C4.67658541 6.26926842 3.78220508 9.15092827 1.375 14.125 C-3.04610149 22.26268564 -3.04610149 22.26268564 -7 25 C-9.75 24.9375 -9.75 24.9375 -12 24 C-12.495 23.01 -12.495 23.01 -13 22 C-13.78375 22.78375 -14.5675 23.5675 -15.375 24.375 C-20 29 -20 29 -23.5 29.1875 C-27 29 -27 29 -29 28 C-29 27.34 -29 26.68 -29 26 C-29.66 26 -30.32 26 -31 26 C-31.2475 26.639375 -31.495 27.27875 -31.75 27.9375 C-33 30 -33 30 -34.875 31 C-37 31 -37 31 -39.1875 29.3125 C-41 27 -41 27 -42 23 C-42 26.63 -42 30.26 -42 34 C-45 35 -45 35 -48 34 C-49.65 35.65 -51.3 37.3 -53 39 C-55.375 37.875 -55.375 37.875 -58 36 C-58.66 34.02 -59.32 32.04 -60 30 C-59.67 34.29 -59.34 38.58 -59 43 C-63 43 -63 43 -64.64453125 41.83984375 C-66.3707348 39.4967836 -66.96565248 37.37732341 -67.6875 34.5625 C-67.93886719 33.61503906 -68.19023437 32.66757813 -68.44921875 31.69140625 C-69 29 -69 29 -69 25 C-67.35 25 -65.7 25 -64 25 C-64 25.66 -64 26.32 -64 27 C-63.34 27 -62.68 27 -62 27 C-61.67 25.35 -61.34 23.7 -61 22 C-59.25 21.25 -59.25 21.25 -57 21 C-52.17911095 24.26118965 -52.54554244 26.81783022 -51 33 C-50.67 27.06 -50.34 21.12 -50 15 C-47.525 15.495 -47.525 15.495 -45 16 C-45 16.66 -45 17.32 -45 18 C-44.34 18 -43.68 18 -43 18 C-42.71125 17.195625 -42.4225 16.39125 -42.125 15.5625 C-41 13 -41 13 -39 12 C-34.5885273 15.23507998 -34.15305442 18.84557192 -33.296875 23.953125 C-33.14992188 24.96632812 -33.14992188 24.96632812 -33 26 C-32.82984375 25.10796875 -32.6596875 24.2159375 -32.484375 23.296875 C-32.24203125 22.12640625 -31.9996875 20.9559375 -31.75 19.75 C-31.51796875 18.58984375 -31.2859375 17.4296875 -31.046875 16.234375 C-29.91512078 12.73776122 -28.89609858 11.21817288 -26 9 C-22.85477278 8.68547728 -20.84083641 8.57958179 -18 10 C-18 10.99 -18 11.98 -18 13 C-18.804375 13.45375 -19.60875 13.9075 -20.4375 14.375 C-23.18142042 15.75137741 -23.18142042 15.75137741 -23.875 18.375 C-24.00520858 21.10938015 -23.67997135 23.35566698 -23 26 C-22.34 26 -21.68 26 -21 26 C-20.3185177 24.10820797 -20.3185177 24.10820797 -20 22 C-20.66 21.34 -21.32 20.68 -22 20 C-21.625 17.375 -21.625 17.375 -21 15 C-19.125 15.3125 -19.125 15.3125 -17 16 C-16.34 16.99 -15.68 17.98 -15 19 C-15 15.04 -15 11.08 -15 7 C-13.35 6.67 -11.7 6.34 -10 6 C-7.90284215 9.14573677 -7.47995441 11.01456251 -6.875 14.6875 C-6.62363281 16.17830078 -6.62363281 16.17830078 -6.3671875 17.69921875 C-6.24601562 18.45847656 -6.12484375 19.21773437 -6 20 C-2.50529466 14.92704064 -0.94087662 11.42493036 -0.4375 5.3125 C-0.31181641 3.82169922 -0.31181641 3.82169922 -0.18359375 2.30078125 C-0.12300781 1.54152344 -0.06242187 0.78226563 0 0 Z " fill="#DBDBDB" transform="translate(222,139)"/>
<path d="M0 0 C12.82839163 10.01913625 21.30861819 22.83276811 29 37 C27.68 37.99 26.36 38.98 25 40 C24.45472656 38.97261719 23.90945313 37.94523437 23.34765625 36.88671875 C13.23391794 18.16361539 0.89442396 3.3125891 -19.96484375 -3.32421875 C-37.72049186 -8.47053356 -55.12972011 -6.38914607 -71.33203125 2.37890625 C-75.54078984 4.93620466 -79.31042922 7.74066186 -83 11 C-83.81210938 11.70640625 -84.62421875 12.4128125 -85.4609375 13.140625 C-96.79387119 23.67153569 -102.85196719 36.30470789 -107 51 C-107.33 50.34 -107.66 49.68 -108 49 C-108.66 49 -109.32 49 -110 49 C-107.08828138 31.79438999 -97.44806132 15.2448514 -83.40039062 4.81201172 C-76.41461359 -0.12736679 -69.22342056 -4.47950887 -61 -7 C-60.06414062 -7.29648438 -59.12828125 -7.59296875 -58.1640625 -7.8984375 C-39.28891513 -13.08078275 -16.53094377 -10.95231949 0 0 Z " fill="#CBCBCB" transform="translate(274,230)"/>
<path d="M0 0 C0.66 0.33 1.32 0.66 2 1 C2.40729228 3.32156597 2.74438677 5.6568787 3 8 C4.918125 7.938125 4.918125 7.938125 6.875 7.875 C9.0546875 7.8046875 9.0546875 7.8046875 11 8 C12.95216435 9.95216435 13.84826645 11.53199953 15 14 C15.763125 13.505 16.52625 13.01 17.3125 12.5 C20 11 20 11 23 11 C21.54714662 16.44047225 17.79097457 19.3082279 13.8125 23 C7.91191914 28.64931411 3.86649359 33.70320915 0.4921875 41.1953125 C-1.22990795 44.43213064 -3.35858669 46.47921817 -6 49 C-7.31455888 50.80974501 -8.50209711 52.653857 -9.69140625 54.546875 C-11.34738947 56.38575786 -12.57315244 56.70222729 -15 57 C-16 56 -16 56 -16.4375 52.5625 C-16.64847551 48.95941003 -16.64847551 48.95941003 -19 47 C-17.68 44.36 -16.36 41.72 -15 39 C-14.67 39.66 -14.34 40.32 -14 41 C-13.34 41 -12.68 41 -12 41 C-11.67 39.68 -11.34 38.36 -11 37 C-11.66 37 -12.32 37 -13 37 C-13 36.34 -13 35.68 -13 35 C-12.01 34.505 -12.01 34.505 -11 34 C-11.57584432 31.61435923 -12.22227595 29.33317216 -13 27 C-8.36909989 22.11182766 -8.36909989 22.11182766 -5.8984375 21.36328125 C-3.55031375 20.00453578 -3.55031375 20.00453578 -3.2421875 16.19140625 C-3.1012155 14.65002369 -2.97956723 13.10677944 -2.875 11.5625 C-2.23449248 3.35173872 -2.23449248 3.35173872 0 0 Z M0 10 C0 11.65 0 13.3 0 15 C0.66 15 1.32 15 2 15 C1.67 13.35 1.34 11.7 1 10 C0.67 10 0.34 10 0 10 Z M4 11 C3.34 12.98 2.68 14.96 2 17 C3.65 16.67 5.3 16.34 7 16 C7.33 15.01 7.66 14.02 8 13 C6.68 12.34 5.36 11.68 4 11 Z M10 14 C9.34 14.66 8.68 15.32 8 16 C8.99 16 9.98 16 11 16 C11.33 15.34 11.66 14.68 12 14 C11.34 14 10.68 14 10 14 Z M-2 16 C-1 19 -1 19 -1 19 Z M14 17 C14.33 17.99 14.66 18.98 15 20 C15.99 18.68 16.98 17.36 18 16 C15.9254644 15.8509288 15.9254644 15.8509288 14 17 Z M7 18 C7 18.66 7 19.32 7 20 C6.34 20 5.68 20 5 20 C4.34 21.65 3.68 23.3 3 25 C4.32 25 5.64 25 7 25 C7.66 22.69 8.32 20.38 9 18 C8.34 18 7.68 18 7 18 Z M9 22 C9.33 22.66 9.66 23.32 10 24 C10.33 23.34 10.66 22.68 11 22 C10.34 22 9.68 22 9 22 Z M-10 26 C-10.33 26.66 -10.66 27.32 -11 28 C-10.34 28.66 -9.68 29.32 -9 30 C-8.67 29.34 -8.34 28.68 -8 28 C-8.66 27.34 -9.32 26.68 -10 26 Z M2 26 C1.67 27.32 1.34 28.64 1 30 C2.98491642 29.73323796 2.98491642 29.73323796 5 29 C5.33 28.01 5.66 27.02 6 26 C4.68 26 3.36 26 2 26 Z M-7 27 C-6 29 -6 29 -6 29 Z M1 31 C0.12593974 32.24317355 -0.69938246 33.52080601 -1.5 34.8125 C-1.9434375 35.52019531 -2.386875 36.22789062 -2.84375 36.95703125 C-4.13587424 39.08751155 -4.13587424 39.08751155 -5 42 C-1.75008447 41.28515597 -1.75008447 41.28515597 -0.375 38.1875 C0.67992164 35.74199982 1.50045341 33.59764224 2 31 C1.67 31 1.34 31 1 31 Z M-7 38 C-7 38.66 -7 39.32 -7 40 C-6.34 40 -5.68 40 -5 40 C-5 39.34 -5 38.68 -5 38 C-5.66 38 -6.32 38 -7 38 Z M-15 42 C-15.66 43.65 -16.32 45.3 -17 47 C-16.34 47 -15.68 47 -15 47 C-14.34 45.35 -13.68 43.7 -13 42 C-13.66 42 -14.32 42 -15 42 Z M-9 42 C-9.33 42.66 -9.66 43.32 -10 44 C-9.34 44 -8.68 44 -8 44 C-8.33 43.34 -8.66 42.68 -9 42 Z " fill="#848484" transform="translate(70,189)"/>
<path d="M0 0 C2.96858157 2.20740681 3.82865791 3.48597373 5 7 C3.5625 9.1875 3.5625 9.1875 2 11 C0.68 10.67 -0.64 10.34 -2 10 C-2 9.34 -2 8.68 -2 8 C-0.68 8 0.64 8 2 8 C1.28436734 5.9837767 1.28436734 5.9837767 0 4 C-2.03506426 3.34520448 -2.03506426 3.34520448 -4 3 C-4.05422947 4.4370809 -4.09289723 5.87475462 -4.125 7.3125 C-4.15980469 8.51326172 -4.15980469 8.51326172 -4.1953125 9.73828125 C-4.15817322 12.28388576 -4.15817322 12.28388576 -2 15 C2.09396103 14.09932857 4.9589301 13.29504608 8.125 10.5 C11.33402465 7.70954378 13.57163187 5.99504415 17.9140625 6.00390625 C22.23395927 6.38412188 25.58788924 7.17282251 29 10 C32.32468035 14.81505431 32.73770249 19.33444491 32 25 C30.85597057 29.10916692 29.65203192 31.56531205 26 34 C22.64951897 34.44251636 20.15534545 34.72398285 17.2109375 32.87890625 C15.74714127 31.65445111 14.36599813 30.3326811 13 29 C13.33 27.68 13.66 26.36 14 25 C14.66 25 15.32 25 16 25 C16.3403125 26.2065625 16.3403125 26.2065625 16.6875 27.4375 C17.120625 28.283125 17.55375 29.12875 18 30 C20.54775306 30.89386164 20.54775306 30.89386164 23 31 C24.28194339 24.92790299 24.28194339 24.92790299 23.19921875 18.96484375 C21.89868944 17.00931682 21.89868944 17.00931682 19 15 C13.52845095 14.80103458 10.28935146 16.78298641 6 20 C1.97685134 22.68209911 -1.27219919 22.68843415 -6 22 C-9.49890004 19.88608123 -10.70578686 18.88263941 -12 15 C-12.11792999 13.35720783 -12.17511674 11.70947306 -12.1875 10.0625 C-12.20167969 9.20785156 -12.21585938 8.35320312 -12.23046875 7.47265625 C-11.98357294 4.82375715 -11.42413681 3.23364615 -10 1 C-6.80508241 -0.59745879 -3.46790611 -0.50816842 0 0 Z " fill="#E1E1E1" transform="translate(72,250)"/>
<path d="M0 0 C0 3 0 3 -1.27734375 4.4296875 C-2.38005511 5.38969503 -3.48421359 6.34804297 -4.58984375 7.3046875 C-6.20161803 8.95927468 -6.20161803 8.95927468 -6.4453125 11.46484375 C-7.57190405 16.61384314 -12.81362828 19.22671977 -17 22 C-42.01738801 37.96467194 -71.60920025 45.34252326 -101 39 C-100.34 37.35 -99.68 35.7 -99 34 C-97.67162109 34.02356567 -97.67162109 34.02356567 -96.31640625 34.04760742 C-61.28878381 34.58751029 -31.30397032 29.46518309 -4.625 4.8046875 C-3.04992776 3.23596636 -1.51805233 1.62396296 0 0 Z " fill="#D8D8D8" transform="translate(317,345)"/>
<path d="M0 0 C3.63467079 1.62400184 4.77408696 2.66113044 7 6 C7.25 8.5625 7.25 8.5625 7 11 C6.34 11.66 5.68 12.32 5 13 C3.68 13 2.36 13 1 13 C1.57584432 10.61435923 2.22227595 8.33317216 3 6 C-5.71029504 7.11630135 -13.23370348 14.40276995 -18.62890625 20.98828125 C-21.74030228 25.55343496 -23.52493258 30.4007191 -23 36 C-21.35 36 -19.7 36 -18 36 C-20 38 -20 38 -23.875 38.375 C-26.75071688 38.27583735 -27.89793445 38.0601925 -30.4375 36.5625 C-32.7481725 32.7729971 -33.2781767 29.414225 -33 25 C-30.44181439 15.16816723 -21.11443831 7.20528523 -12.84765625 2.05859375 C-8.53791979 -0.41062101 -4.91941418 -0.48513254 0 0 Z " fill="#E6E6E6" transform="translate(347,156)"/>
<path d="M0 0 C4.37859255 0.50522222 6.81651224 3.17827222 10 6 C9.34 4.35 8.68 2.7 8 1 C8.99 1 9.98 1 11 1 C11.495 4.465 11.495 4.465 12 8 C9.8125 8.8125 9.8125 8.8125 7 9 C4.1875 6.5625 4.1875 6.5625 2 4 C3.07401108 6.91517292 3.77810176 8.77810176 6 11 C6 11.99 6 12.98 6 14 C5.4225 14.04125 4.845 14.0825 4.25 14.125 C0.91330635 15.42260308 -0.07189916 18.07675033 -2 21 C-2.99 21 -3.98 21 -5 21 C-5.33 22.32 -5.66 23.64 -6 25 C-7.32 25 -8.64 25 -10 25 C-10.66 26.32 -11.32 27.64 -12 29 C-12.66 29 -13.32 29 -14 29 C-14.66 29.99 -15.32 30.98 -16 32 C-18.7505874 34.0815256 -20.20344427 35.0370491 -23.6875 34.875 C-26 34 -26 34 -28 31 C-28.4516129 24.67741935 -28.4516129 24.67741935 -26 21 C-24.68 21 -23.36 21 -22 21 C-20.92474806 23.65228812 -19.90543849 26.28368454 -19 29 C-18.34 29 -17.68 29 -17 29 C-17.56542004 27.67968405 -18.15306472 26.3688699 -18.75 25.0625 C-19.07484375 24.33160156 -19.3996875 23.60070312 -19.734375 22.84765625 C-20.86169372 20.81193356 -20.86169372 20.81193356 -23.140625 20.24609375 C-23.75421875 20.16488281 -24.3678125 20.08367187 -25 20 C-24.95875 19.2575 -24.9175 18.515 -24.875 17.75 C-25.00398134 14.91241048 -25.57051222 13.41226062 -27 11 C-23 11 -23 11 -21.25 12.5 C-20.8375 12.995 -20.425 13.49 -20 14 C-20.33 12.68 -20.66 11.36 -21 10 C-19.68 9.67 -18.36 9.34 -17 9 C-16.67 9.99 -16.34 10.98 -16 12 C-15.34 12 -14.68 12 -14 12 C-13.87625 12.8353125 -13.87625 12.8353125 -13.75 13.6875 C-12.77389987 16.69714206 -11.04811186 18.62154752 -9 21 C-9.4640625 19.9171875 -9.4640625 19.9171875 -9.9375 18.8125 C-10.92560539 16.19692691 -11.5287754 13.74881018 -12 11 C-10.3125 9.4375 -10.3125 9.4375 -8 8 C-5.375 8.125 -5.375 8.125 -3 9 C-2.01 10.485 -2.01 10.485 -1 12 C-1.33 11.4225 -1.66 10.845 -2 10.25 C-3 8 -3 8 -3 4 C-1.5 1.75 -1.5 1.75 0 0 Z M-8 14 C-6.70532323 16.05990478 -6.70532323 16.05990478 -5 18 C-4.01 18 -3.02 18 -2 18 C-2 17.34 -2 16.68 -2 16 C-3.98 15.34 -5.96 14.68 -8 14 Z M-18 16 C-18.33 16.66 -18.66 17.32 -19 18 C-17.02 20.64 -15.04 23.28 -13 26 C-12.67 25.01 -12.34 24.02 -12 23 C-14.29883756 18.8008693 -14.29883756 18.8008693 -18 16 Z M-25 24 C-25.20970559 28.14093698 -25.20970559 28.14093698 -24 32 C-23.01 32 -22.02 32 -21 32 C-22.12451727 29.0280615 -23.22293791 26.66559313 -25 24 Z " fill="#CBCBCB" transform="translate(335,358)"/>
<path d="M0 0 C0.99 0 1.98 0 3 0 C2.01 3.63 1.02 7.26 0 11 C3.34905453 7.65094547 3.89470285 5.50621146 5 1 C5.99 1.33 6.98 1.66 8 2 C7.67 4.97 7.34 7.94 7 11 C8.32 8.36 9.64 5.72 11 3 C13.33333333 3 15.66666667 3 18 3 C18.33 5.31 18.66 7.62 19 10 C19.99 7.69 20.98 5.38 22 3 C22.99 3.33 23.98 3.66 25 4 C24.67 6.97 24.34 9.94 24 13 C26.29575603 10.70424397 26.32339599 9.99157475 26.625 6.875 C26.74875 5.59625 26.8725 4.3175 27 3 C27.99 3.33 28.98 3.66 30 4 C30.495 7.96 30.495 7.96 31 12 C31 8.7 31 5.4 31 2 C33.64 2.33 36.28 2.66 39 3 C39.95024979 6.69541586 39.95024979 9.30458414 39 13 C39.66 12.67 40.32 12.34 41 12 C41.33 11.01 41.66 10.02 42 9 C42.66 9 43.32 9 44 9 C43.125 14.875 43.125 14.875 42 16 C39.5 16.125 39.5 16.125 37 16 C36 15 36 15 35.875 11.5625 C36 8 36 8 37 6 C36.34 6 35.68 6 35 6 C35.0825 6.886875 35.165 7.77375 35.25 8.6875 C34.94791837 12.69008159 33.70272533 14.12835434 31 17 C30.236875 16.814375 29.47375 16.62875 28.6875 16.4375 C25.91032625 15.77180827 25.91032625 15.77180827 23 17 C22.34 16.67 21.68 16.34 21 16 C21 15.34 21 14.68 21 14 C19.783125 14.350625 18.56625 14.70125 17.3125 15.0625 C13.82434085 15.94994685 11.51554046 15.90399612 8 15 C7.01 15.33 6.02 15.66 5 16 C4.9175 17.27875 4.835 18.5575 4.75 19.875 C4.48828125 22.0859375 4.48828125 22.0859375 4 24 C1.9375 25.5 1.9375 25.5 0 26 C-0.99 25.34 -1.98 24.68 -3 24 C-2.75 21.125 -2.75 21.125 -2 18 C0.0625 16.625 0.0625 16.625 2 16 C0.74458443 13.48916886 -0.50063488 13.12874554 -3 12 C-2.14285714 3.42857143 -2.14285714 3.42857143 0 0 Z M12 6 C12 7.98 12 9.96 12 12 C12.99 12.495 12.99 12.495 14 13 C13.67 10.69 13.34 8.38 13 6 C12.67 6 12.34 6 12 6 Z M15 6 C16 8 16 8 16 8 Z M0 20 C1 23 1 23 1 23 Z " fill="#C7C7C7" transform="translate(205,398)"/>
<path d="M0 0 C0.99 0 1.98 0 3 0 C1.36053412 4.66617211 1.36053412 4.66617211 -0.6875 6.5625 C-2.21070918 7.90635148 -2.21070918 7.90635148 -2 9.875 C-0.59651219 12.85741159 1.65665642 14.71674215 4 17 C4 17.66 4 18.32 4 19 C6.31 17.35 8.62 15.7 11 14 C11.33 14.66 11.66 15.32 12 16 C10.02 18.97 10.02 18.97 8 22 C8.54269531 22.67546875 9.08539063 23.3509375 9.64453125 24.046875 C10.71767578 25.38492188 10.71767578 25.38492188 11.8125 26.75 C12.52019531 27.63171875 13.22789063 28.5134375 13.95703125 29.421875 C14.63121094 30.27265625 15.30539063 31.1234375 16 32 C16.5878125 32.6909375 17.175625 33.381875 17.78125 34.09375 C19.70732865 37.10633455 18.70998972 39.64368495 18 43 C15.37071386 42.88526751 13.57144465 42.52625694 11.60449219 40.71484375 C10.14142483 39.01288733 8.74742507 37.27585771 7.375 35.5 C3.94313309 30.79519365 3.94313309 30.79519365 -1 28 C-2 26 -3 24 -4 22 C-6.29199403 19.03949126 -6.29199403 19.03949126 -9 17 C-11.27523089 17.04497842 -11.27523089 17.04497842 -13 18 C-14 16 -14 16 -13.3984375 14.125 C-10.57672727 8.26618182 -10.57672727 8.26618182 -7.5625 6.875 C-6.716875 6.58625 -5.87125 6.2975 -5 6 C-3.63405337 4.55931353 -3.63405337 4.55931353 -2.375 2.875 C-1.59125 1.92625 -0.8075 0.9775 0 0 Z " fill="#E3E3E3" transform="translate(108,174)"/>
<path d="M0 0 C0.66 0.33 1.32 0.66 2 1 C2.57420393 4.21554203 2.84532533 5.91456253 2 9 C-0.94491745 12.19032723 -4.45915536 14.5118389 -8 17 C-9.88489897 18.48754189 -11.76043978 19.98704257 -13.625 21.5 C-15.08333333 22.66666667 -16.54166667 23.83333333 -18 25 C-17.32453125 24.79503906 -16.6490625 24.59007812 -15.953125 24.37890625 C-15.06109375 24.10949219 -14.1690625 23.84007812 -13.25 23.5625 C-12.36828125 23.29566406 -11.4865625 23.02882812 -10.578125 22.75390625 C-8.39434165 22.11531506 -6.21164502 21.53224167 -4 21 C-3.6875 23.75 -3.6875 23.75 -4 27 C-6.22461782 29.16607525 -8.23377522 30.61688761 -11 32 C-9.68 32 -8.36 32 -7 32 C-8.2491742 35.45925163 -9.67527795 38.14693203 -12 41 C-11.67 39.35 -11.34 37.7 -11 36 C-12.134375 35.731875 -13.26875 35.46375 -14.4375 35.1875 C-15.613125 34.795625 -16.78875 34.40375 -18 34 C-18.495 32.515 -18.495 32.515 -19 31 C-18.67 30.34 -18.34 29.68 -18 29 C-18.804375 28.773125 -19.60875 28.54625 -20.4375 28.3125 C-21.7059375 27.6628125 -21.7059375 27.6628125 -23 27 C-23.8125 24.375 -23.8125 24.375 -24 22 C-24.99 22 -25.98 22 -27 22 C-29.33564933 21.68330179 -31.6693782 21.35179197 -34 21 C-34 20.67 -34 20.34 -34 20 C-33.2265625 19.85304687 -32.453125 19.70609375 -31.65625 19.5546875 C-24.31008177 17.97271563 -19.60774019 15.9120431 -14 11 C-12.06557244 9.4129144 -10.12791384 7.829761 -8.1875 6.25 C-7.27355469 5.49203125 -6.35960937 4.7340625 -5.41796875 3.953125 C-3 2 -3 2 0 0 Z " fill="#DADADA" transform="translate(358,171)"/>
<path d="M0 0 C3.16115776 1.36983503 3.9927092 1.9890638 6 5 C6.25 8.5625 6.25 8.5625 6 12 C4 14 4 14 1.5625 14.0625 C0.2940625 14.0315625 0.2940625 14.0315625 -1 14 C-1.99 14.33 -2.98 14.66 -4 15 C-4.433125 15.99 -4.433125 15.99 -4.875 17 C-6 19 -6 19 -8.3125 19.6875 C-9.199375 19.790625 -10.08625 19.89375 -11 20 C-11.928125 20.185625 -12.85625 20.37125 -13.8125 20.5625 C-14.534375 20.706875 -15.25625 20.85125 -16 21 C-17.32 18.36 -18.64 15.72 -20 13 C-19.67 16.3 -19.34 19.6 -19 23 C-23 25 -23 25 -25.5625 25.0625 C-28 24 -28 24 -29.8125 20.4375 C-30.204375 19.303125 -30.59625 18.16875 -31 17 C-31 20.3 -31 23.6 -31 27 C-31.99 26.67 -32.98 26.34 -34 26 C-35.48882438 21.92532275 -36.26270217 18.33458585 -36 14 C-33.10765685 13.17361624 -31.11257569 13 -28 13 C-26.0549 15.91765 -25.54723683 17.62537285 -25 21 C-25.33 17.7 -25.66 14.4 -26 11 C-23.33333333 10.33333333 -20.66666667 9.66666667 -18 9 C-16.3372974 11.67478244 -15.00016187 13.9995144 -14 17 C-14 13.7 -14 10.4 -14 7 C-9.24324324 5.81081081 -9.24324324 5.81081081 -6 7 C-4 9 -4 9 -4 12 C-3.34 12 -2.68 12 -2 12 C-2.495 11.071875 -2.99 10.14375 -3.5 9.1875 C-5 6 -5 6 -5 3 C-4.01 3 -3.02 3 -2 3 C-0.68 5.31 0.64 7.62 2 10 C2.25030977 7.58380177 2.25030977 7.58380177 2 5 C1.01 4.34 0.02 3.68 -1 3 C-0.67 2.01 -0.34 1.02 0 0 Z M-11 10 C-10.67 11.65 -10.34 13.3 -10 15 C-9.01 15.33 -8.02 15.66 -7 16 C-8.15173355 13.53199953 -9.04783565 11.95216435 -11 10 Z " fill="#C8C8C8" transform="translate(301,384)"/>
<path d="M0 0 C2.475 0.495 2.475 0.495 5 1 C5 1.99 5 2.98 5 4 C5.66 4 6.32 4 7 4 C7.33 8.95 7.66 13.9 8 19 C5 20 5 20 2 19 C0.35 20.65 -1.3 22.3 -3 24 C-5.375 22.875 -5.375 22.875 -8 21 C-8.66 19.02 -9.32 17.04 -10 15 C-9.67 19.29 -9.34 23.58 -9 28 C-13 28 -13 28 -14.64453125 26.83984375 C-16.3707348 24.4967836 -16.96565248 22.37732341 -17.6875 19.5625 C-17.93886719 18.61503906 -18.19023437 17.66757813 -18.44921875 16.69140625 C-19 14 -19 14 -19 10 C-17.35 10 -15.7 10 -14 10 C-14 10.66 -14 11.32 -14 12 C-13.34 12 -12.68 12 -12 12 C-11.67 10.35 -11.34 8.7 -11 7 C-9.25 6.25 -9.25 6.25 -7 6 C-2.17911095 9.26118965 -2.54554244 11.81783022 -1 18 C-0.67 12.06 -0.34 6.12 0 0 Z " fill="#D1D1D1" transform="translate(172,154)"/>
<path d="M0 0 C3.67321589 -0.42711813 5.46861866 -0.36289457 8.5625 1.75 C14.77140569 8.85155986 16.99364075 19.71530509 19.86328125 28.5625 C20.77790902 31.32838466 21.75089878 34.03868045 22.8125 36.75 C24 40 24 40 24 43 C21.6875 43.3125 21.6875 43.3125 19 43 C16.57959138 39.50447593 14.80809202 35.67732414 12.96875 31.8515625 C12.40542969 30.68109375 11.84210938 29.510625 11.26171875 28.3046875 C10.97216309 27.69979492 10.68260742 27.09490234 10.38427734 26.47167969 C9.50523526 24.63593305 8.62206408 22.80221821 7.73828125 20.96875 C6.14549055 17.65195472 4.56688898 14.32909952 3 11 C2.64550781 10.25073242 2.29101562 9.50146484 1.92578125 8.72949219 C0.45062685 5.48311368 0 3.67173699 0 0 Z " fill="#E2E2E2" transform="translate(132,149)"/>
<path d="M0 0 C4.21049806 1.40349935 5.02584166 3.77395833 7.05859375 7.56640625 C8.45205116 11.16858039 8.01573177 13.327739 7 17 C5.35 17 3.7 17 2 17 C2.350625 17.53625 2.70125 18.0725 3.0625 18.625 C4.34452118 21.87278698 4.05543562 23.69296839 3 27 C0.12783374 29.61873983 -1.55412894 29.98378651 -5.4375 30.125 C-10.20660533 28.61896674 -12.48435102 26.2715382 -15 22 C-16 18.25 -16 18.25 -16 15 C-15.34 14.01 -14.68 13.02 -14 12 C-11.03824877 12.61277612 -9.61941217 13.25372522 -7 15 C-7.33 16.65 -7.66 18.3 -8 20 C-3.73422431 22.9540719 -3.73422431 22.9540719 1 25 C-0.70169981 17.34235083 -4.14373343 13.10510648 -10 8 C-9.67 7.01 -9.34 6.02 -9 5 C-2.85310727 5.36881356 -0.30972626 6.90050429 4 11 C2.7874262 7.27566618 1.49140021 3.62197194 0 0 Z " fill="#DCDCDC" transform="translate(101,225)"/>
<path d="M0 0 C1.9375 0.3125 1.9375 0.3125 4 1 C5 4 5 4 4.36328125 5.796875 C4.01652344 6.44140625 3.66976562 7.0859375 3.3125 7.75 C2.94253906 8.44609375 2.57257813 9.1421875 2.19140625 9.859375 C0.48658175 12.92246952 -1.23356842 15.97183158 -3 19 C-1.02 18.34 0.96 17.68 3 17 C1.125 20.875 1.125 20.875 0 22 C-2.4375 22.1875 -2.4375 22.1875 -5 22 C-5.66 21.34 -6.32 20.68 -7 20 C-8.99760305 19.65259077 -10.99787771 19.32033957 -13 19 C-14.3436528 18.35438449 -15.67616622 17.68533667 -17 17 C-17.76699219 16.69320313 -18.53398437 16.38640625 -19.32421875 16.0703125 C-20.49404297 15.60238281 -20.49404297 15.60238281 -21.6875 15.125 C-22.47511719 14.81820313 -23.26273438 14.51140625 -24.07421875 14.1953125 C-26 13 -26 13 -26.91015625 11.1328125 C-27.0274886 8.34744464 -26.25066129 7.07861234 -24.75 4.75 C-24.31171875 4.04359375 -23.8734375 3.3371875 -23.421875 2.609375 C-22.95265625 2.07828125 -22.4834375 1.5471875 -22 1 C-21.01 1 -20.02 1 -19 1 C-19.70554068 4.66881155 -21.27735506 7.70450534 -23 11 C-20.33264727 8.51047079 -18.44253657 6.36591866 -17 3 C-16.01 3.33 -15.02 3.66 -14 4 C-14.33 4.94875 -14.66 5.8975 -15 6.875 C-16.10159191 9.77062452 -16.10159191 9.77062452 -16 12 C-14.35 10.02 -12.7 8.04 -11 6 C-8.525 6.495 -8.525 6.495 -6 7 C-5.67 7.99 -5.34 8.98 -5 10 C-7 12 -9 14 -11 16 C-9.35 16 -7.7 16 -6 16 C-5.81824219 15.26394531 -5.63648438 14.52789062 -5.44921875 13.76953125 C-2.95254833 4.07732865 -2.95254833 4.07732865 0 0 Z M1 3 C2 5 2 5 2 5 Z M-10 9 C-10 12 -10 12 -10 12 Z " fill="#AEAEAE" transform="translate(195,386)"/>
<path d="M0 0 C0.99 0.33 1.98 0.66 3 1 C2.67 1.99 2.34 2.98 2 4 C2.66 4.66 3.32 5.32 4 6 C2.68 6 1.36 6 0 6 C-0.33 7.32 -0.66 8.64 -1 10 C-0.34 10 0.32 10 1 10 C0.67 10.99 0.34 11.98 0 13 C-0.66 13 -1.32 13 -2 13 C-3.32 15.64 -4.64 18.28 -6 21 C-3.84365964 18.84365964 -2.52206009 16.62901288 -1 14 C-0.34 14.66 0.32 15.32 1 16 C-1.35579715 21.30383381 -3.75137151 24.95862168 -8 29 C-9.28534249 30.81895438 -10.50659361 32.66101406 -11.69140625 34.546875 C-13.34738947 36.38575786 -14.57315244 36.70222729 -17 37 C-18 36 -18 36 -18.4375 32.5625 C-18.64847551 28.95941003 -18.64847551 28.95941003 -21 27 C-19.68 24.36 -18.36 21.72 -17 19 C-16.67 19.66 -16.34 20.32 -16 21 C-15.34 21 -14.68 21 -14 21 C-13.773125 20.4225 -13.54625 19.845 -13.3125 19.25 C-12 17 -12 17 -9.375 14.9375 C-8.199375 13.9784375 -8.199375 13.9784375 -7 13 C-7 12.01 -7 11.02 -7 10 C-6.34 9.67 -5.68 9.34 -5 9 C-4.87625 8.05125 -4.7525 7.1025 -4.625 6.125 C-4 3 -4 3 -2.125 1.0625 C-1.42375 0.711875 -0.7225 0.36125 0 0 Z M-9 18 C-9 18.66 -9 19.32 -9 20 C-8.34 20 -7.68 20 -7 20 C-7 19.34 -7 18.68 -7 18 C-7.66 18 -8.32 18 -9 18 Z M-17 22 C-17.66 23.65 -18.32 25.3 -19 27 C-18.34 27 -17.68 27 -17 27 C-16.34 25.35 -15.68 23.7 -15 22 C-15.66 22 -16.32 22 -17 22 Z M-11 22 C-11.33 22.66 -11.66 23.32 -12 24 C-11.34 24 -10.68 24 -10 24 C-10.33 23.34 -10.66 22.68 -11 22 Z " fill="#6E6E6E" transform="translate(72,209)"/>
<path d="M0 0 C0.99 0.33 1.98 0.66 3 1 C4.67658541 6.26926842 3.78220508 9.15092827 1.375 14.125 C-3.04610149 22.26268564 -3.04610149 22.26268564 -7 25 C-9.75 24.9375 -9.75 24.9375 -12 24 C-12.33 23.34 -12.66 22.68 -13 22 C-13.78375 22.78375 -14.5675 23.5675 -15.375 24.375 C-20 29 -20 29 -23.625 29.125 C-24.73875 29.08375 -25.8525 29.0425 -27 29 C-26.01 28.67 -25.02 28.34 -24 28 C-23.67 27.34 -23.34 26.68 -23 26 C-22.34 26 -21.68 26 -21 26 C-20.3185177 24.10820797 -20.3185177 24.10820797 -20 22 C-20.66 21.34 -21.32 20.68 -22 20 C-21.625 17.375 -21.625 17.375 -21 15 C-19.125 15.3125 -19.125 15.3125 -17 16 C-16.34 16.99 -15.68 17.98 -15 19 C-15 15.04 -15 11.08 -15 7 C-13.35 6.67 -11.7 6.34 -10 6 C-7.90284215 9.14573677 -7.47995441 11.01456251 -6.875 14.6875 C-6.70742187 15.68136719 -6.53984375 16.67523438 -6.3671875 17.69921875 C-6.24601562 18.45847656 -6.12484375 19.21773437 -6 20 C-2.50529466 14.92704064 -0.94087662 11.42493036 -0.4375 5.3125 C-0.35371094 4.31863281 -0.26992187 3.32476562 -0.18359375 2.30078125 C-0.09271484 1.16189453 -0.09271484 1.16189453 0 0 Z " fill="#E0E0E0" transform="translate(222,139)"/>
<path d="M0 0 C10.02984899 1.54305369 18.41469937 9.84975035 24.28759766 17.72705078 C29.33396113 24.84772057 34.00273467 32.23688997 38 40 C36.68 40.99 35.36 41.98 34 43 C33.45472656 41.97261719 32.90945313 40.94523437 32.34765625 39.88671875 C24.46884269 25.30102986 15.14402594 11.73311963 0 4 C0 2.68 0 1.36 0 0 Z " fill="#D8D8D8" transform="translate(265,227)"/>
<path d="M0 0 C2.21069825 1.22893934 4.38815249 2.49224478 6.54296875 3.81640625 C6.54296875 4.80640625 6.54296875 5.79640625 6.54296875 6.81640625 C3.1683416 6.26916942 1.46061875 5.76150625 -1.45703125 3.81640625 C-3.07214576 8.35891581 -4.01925072 11.12974785 -2.45703125 15.81640625 C-3.22015625 15.71328125 -3.98328125 15.61015625 -4.76953125 15.50390625 C-5.65640625 15.60703125 -6.54328125 15.71015625 -7.45703125 15.81640625 C-8.48716402 17.46461869 -9.48817753 19.13144327 -10.45703125 20.81640625 C-11.77703125 20.81640625 -13.09703125 20.81640625 -14.45703125 20.81640625 C-14.45703125 19.82640625 -14.45703125 18.83640625 -14.45703125 17.81640625 C-13.71453125 17.13578125 -13.71453125 17.13578125 -12.95703125 16.44140625 C-11.17813226 14.85416102 -11.17813226 14.85416102 -11.26953125 12.12890625 C-11.33140625 11.36578125 -11.39328125 10.60265625 -11.45703125 9.81640625 C-10.79703125 9.48640625 -10.13703125 9.15640625 -9.45703125 8.81640625 C-8.79703125 9.14640625 -8.13703125 9.47640625 -7.45703125 9.81640625 C-7.14765625 9.03265625 -6.83828125 8.24890625 -6.51953125 7.44140625 C-5.45703125 4.81640625 -5.45703125 4.81640625 -4.45703125 2.81640625 C-6.23844872 1.95282002 -6.23844872 1.95282002 -8.45703125 1.81640625 C-11.21969791 3.86867291 -12.29757105 5.23171884 -13.20703125 8.56640625 C-13.28953125 9.30890625 -13.37203125 10.05140625 -13.45703125 10.81640625 C-14.44703125 10.48640625 -15.43703125 10.15640625 -16.45703125 9.81640625 C-15.7123504 2.0717254 -15.7123504 2.0717254 -12.45703125 -1.18359375 C-7.91864362 -2.69638963 -4.31261527 -2.07746014 0 0 Z " fill="#BFBFBF" transform="translate(172.45703125,374.18359375)"/>
<path d="M0 0 C1.45742463 -0.08096803 2.91612807 -0.13917774 4.375 -0.1875 C5.18710937 -0.22230469 5.99921875 -0.25710937 6.8359375 -0.29296875 C7.55007813 -0.19628906 8.26421875 -0.09960938 9 0 C11 3 11 3 10.8125 5.5 C9.95559826 8.13662075 9.11007147 9.25689748 7 11 C8.32 11.66 9.64 12.32 11 13 C9.39673958 14.60326042 7.71699591 14.24749549 5.5 14.3125 C0.09716699 14.25030912 -4.54720279 13.16755802 -9 10 C-10.0625 7.25 -10.0625 7.25 -10 5 C-5.7157464 3.8315672 -2.35203283 4.36697704 2 5 C4.29887008 4.80469849 4.29887008 4.80469849 6 4 C6.33 3.34 6.66 2.68 7 2 C4.69 1.67 2.38 1.34 0 1 C0 0.67 0 0.34 0 0 Z " fill="#D0D0D0" transform="translate(363,215)"/>
<path d="M0 0 C0.66 1.32 1.32 2.64 2 4 C5.465 3.505 5.465 3.505 9 3 C9.62925559 8.03404473 9.10379244 10.35011137 6 14.4375 C5.01580259 15.63812971 4.02080074 16.83033248 3 18 C7.20128793 15.23240532 7.20128793 15.23240532 11.25 12.25 C13 11 13 11 15 11 C13.48626976 14.85313152 11.51632085 16.83035522 8 19 C5.00627562 19.60778633 2.04917893 19.86713817 -1 20 C-2.1875 17.9375 -2.1875 17.9375 -3 15 C-2.28868624 13.28638049 -1.56803532 11.57357065 -0.73828125 9.9140625 C0.53627562 6.60965581 0.18430441 3.50178381 0 0 Z " fill="#D6D6D6" transform="translate(293,152)"/>
<path d="M0 0 C2.64 0.33 5.28 0.66 8 1 C8.95024979 4.69541586 8.95024979 7.30458414 8 11 C8.66 10.67 9.32 10.34 10 10 C10.33 9.01 10.66 8.02 11 7 C11.66 7 12.32 7 13 7 C12.125 12.875 12.125 12.875 11 14 C8.5 14.125 8.5 14.125 6 14 C5 13 5 13 4.875 9.5625 C5 6 5 6 6 4 C5.34 4 4.68 4 4 4 C4.12375 5.3303125 4.12375 5.3303125 4.25 6.6875 C3.94791837 10.69008159 2.70272533 12.12835434 0 15 C-2.97 14.505 -2.97 14.505 -6 14 C-5.34 9.71 -4.68 5.42 -4 1 C-3.01 1.33 -2.02 1.66 -1 2 C-0.67 4.64 -0.34 7.28 0 10 C0 6.7 0 3.4 0 0 Z " fill="#BBBBBB" transform="translate(236,400)"/>
<path d="M0 0 C-0.99 0.33 -1.98 0.66 -3 1 C-2.01 1.66 -1.02 2.32 0 3 C-5.28210918 4.00502504 -10.56570962 5.00165492 -15.85083008 5.99072266 C-17.64650591 6.32796762 -19.44176205 6.66745555 -21.23657227 7.00927734 C-23.824597 7.50175584 -26.41405098 7.98600249 -29.00390625 8.46875 C-29.79898087 8.62186646 -30.59405548 8.77498291 -31.41322327 8.93273926 C-36.02655281 9.78315413 -40.30881571 10.15282508 -45 10 C-42.24376863 7.72942753 -40.05235176 6.52038087 -36.578125 5.71875 C-35.29796509 5.41735107 -35.29796509 5.41735107 -33.99194336 5.10986328 C-32.6346814 4.80798096 -32.6346814 4.80798096 -31.25 4.5 C-30.32002197 4.28714355 -29.39004395 4.07428711 -28.43188477 3.85498047 C-4.35598695 -1.58597031 -4.35598695 -1.58597031 0 0 Z " fill="#C6C6C6" transform="translate(51,328)"/>
<path d="M0 0 C2.96175123 0.61277612 4.38058783 1.25372522 7 3 C6.67 4.65 6.34 6.3 6 8 C7.3921875 8.928125 7.3921875 8.928125 8.8125 9.875 C10.875 11.25 12.9375 12.625 15 14 C15 14.99 15 15.98 15 17 C8.80373832 18.3364486 8.80373832 18.3364486 5.3125 16.875 C1.39957391 13.70235723 -0.67512165 11.3459246 -1.875 6.375 C-2 3 -2 3 0 0 Z " fill="#D6D6D6" transform="translate(87,237)"/>
<path d="M0 0 C0.3125 2.75 0.3125 2.75 0 6 C-2.22461782 8.16607525 -4.23377522 9.61688761 -7 11 C-5.68 11 -4.36 11 -3 11 C-4.2491742 14.45925163 -5.67527795 17.14693203 -8 20 C-7.67 18.35 -7.34 16.7 -7 15 C-8.134375 14.731875 -9.26875 14.46375 -10.4375 14.1875 C-12.2009375 13.5996875 -12.2009375 13.5996875 -14 13 C-14.33 12.01 -14.66 11.02 -15 10 C-14.67 9.34 -14.34 8.68 -14 8 C-15.32 7.34 -16.64 6.68 -18 6 C-17.34 6 -16.68 6 -16 6 C-15.67 5.34 -15.34 4.68 -15 4 C-13.0390625 3.4375 -13.0390625 3.4375 -10.625 3 C-6.66865047 2.27832061 -3.92349641 0 0 0 Z " fill="#CECECE" transform="translate(354,192)"/>
<path d="M0 0 C3.25757706 3.25757706 3.15417182 6.65902402 3.1875 11.125 C3.20167969 11.99382812 3.21585938 12.86265625 3.23046875 13.7578125 C3 16 3 16 1 18 C-2.79540972 17.91749109 -4.47553203 17.52446797 -7.1875 14.8125 C-12.146948 7.11680482 -12.146948 7.11680482 -11.6875 3.625 C-11.460625 3.08875 -11.23375 2.5525 -11 2 C-7.75480334 2.30406442 -6.38099448 2.56280677 -4.19921875 5.06640625 C-3.70035156 5.89011719 -3.20148438 6.71382812 -2.6875 7.5625 C-2.17574219 8.38878906 -1.66398438 9.21507812 -1.13671875 10.06640625 C-0.76160156 10.70449219 -0.38648438 11.34257812 0 12 C-0.08378906 11.21753906 -0.16757813 10.43507812 -0.25390625 9.62890625 C-0.35574219 8.61699219 -0.45757812 7.60507813 -0.5625 6.5625 C-0.66691406 5.55316406 -0.77132812 4.54382813 -0.87890625 3.50390625 C-0.91886719 2.67761719 -0.95882812 1.85132813 -1 1 C-0.67 0.67 -0.34 0.34 0 0 Z " fill="#DADADA" transform="translate(133,187)"/>
<path d="M0 0 C2.8125 0.4375 2.8125 0.4375 4.8125 1.4375 C4.8125 2.4275 4.8125 3.4175 4.8125 4.4375 C4.008125 4.89125 3.20375 5.345 2.375 5.8125 C-0.35244224 7.17536607 -0.35244224 7.17536607 -1 9.6875 C-1.22222317 12.94677323 -1.25153373 16.17177972 -1.1875 19.4375 C-2.8375 19.4375 -4.4875 19.4375 -6.1875 19.4375 C-8.6261187 15.10870697 -9.0055644 11.32058542 -8.1875 6.4375 C-6.36283872 2.59239834 -4.34484662 0.5963515 0 0 Z " fill="#E1E1E1" transform="translate(199.1875,147.5625)"/>
<path d="M0 0 C0.33 0.99 0.66 1.98 1 3 C0.236875 3.268125 -0.52625 3.53625 -1.3125 3.8125 C-4.66254961 5.29275448 -6.3957459 6.69948603 -7.94921875 10.04296875 C-8.19285156 10.75066406 -8.43648437 11.45835937 -8.6875 12.1875 C-8.93886719 12.90292969 -9.19023437 13.61835938 -9.44921875 14.35546875 C-9.63097656 14.89816406 -9.81273437 15.44085938 -10 16 C-9.34 16 -8.68 16 -8 16 C-8 16.66 -8 17.32 -8 18 C-11.01957293 18.32644032 -12.49556179 18.36256496 -15 16.5625 C-16.41545668 12.93539227 -15.45111005 10.74788442 -14.09765625 7.19140625 C-10.69762812 0.40344974 -7.04834667 -1.37902435 0 0 Z " fill="#DADADA" transform="translate(240,144)"/>
<path d="M0 0 C2.15626379 7.54692326 3.04905387 15.23056782 4 23 C3.01 23 2.02 23 1 23 C0.49161436 20.96040523 -0.00633886 18.91820862 -0.5 16.875 C-0.7784375 15.73804688 -1.056875 14.60109375 -1.34375 13.4296875 C-1.96453765 10.18533302 -2.12006768 7.29185543 -2 4 C-3.62493901 5.12109566 -3.62493901 5.12109566 -5 7 C-5.25048636 10.12549017 -5.25048636 10.12549017 -5 13 C-4.34 13 -3.68 13 -3 13 C-3.33 14.32 -3.66 15.64 -4 17 C-7 16 -7 16 -8.1875 14.3125 C-9.24798545 11.29419526 -9.38989322 9.18412795 -9 6 C-6.35718951 2.03578426 -4.88342268 0 0 0 Z " fill="#CDCDCD" transform="translate(261,389)"/>
<path d="M0 0 C0.61875 0.78375 1.2375 1.5675 1.875 2.375 C3.89858661 4.96837647 3.89858661 4.96837647 6 7 C6 7.99 6 8.98 6 10 C5.34 10 4.68 10 4 10 C3.938125 10.598125 3.87625 11.19625 3.8125 11.8125 C3 14 3 14 0.75 15.8125 C-2.44495838 17.19214112 -3.77083552 17.22184602 -7 16 C-9.45811625 12.31282562 -9.31118164 10.35654296 -9 6 C-8.34 5.01 -7.68 4.02 -7 3 C-5.68 3 -4.36 3 -3 3 C-1.92474806 5.65228812 -0.90543849 8.28368454 0 11 C0.66 11 1.32 11 2 11 C1.77183594 10.37351562 1.54367187 9.74703125 1.30859375 9.1015625 C1.02113281 8.28429687 0.73367188 7.46703125 0.4375 6.625 C0.14746094 5.81289063 -0.14257812 5.00078125 -0.44140625 4.1640625 C-1 2 -1 2 0 0 Z M-6 6 C-6.20970559 10.14093698 -6.20970559 10.14093698 -5 14 C-4.01 14 -3.02 14 -2 14 C-3.12451727 11.0280615 -4.22293791 8.66559313 -6 6 Z " fill="#D3D3D3" transform="translate(316,376)"/>
<path d="M0 0 C1.9375 0.3125 1.9375 0.3125 4 1 C5 4 5 4 4.36328125 5.796875 C4.01652344 6.44140625 3.66976562 7.0859375 3.3125 7.75 C2.94253906 8.44609375 2.57257813 9.1421875 2.19140625 9.859375 C0.48658175 12.92246952 -1.23356842 15.97183158 -3 19 C-1.02 18.34 0.96 17.68 3 17 C1.125 20.875 1.125 20.875 0 22 C-1.66617115 22.04063832 -3.33388095 22.042721 -5 22 C-5.99 20.02 -6.98 18.04 -8 16 C-7.34 16 -6.68 16 -6 16 C-5.72736328 14.89591797 -5.72736328 14.89591797 -5.44921875 13.76953125 C-2.95254833 4.07732865 -2.95254833 4.07732865 0 0 Z M1 3 C2 5 2 5 2 5 Z " fill="#C9C9C9" transform="translate(195,386)"/>
<path d="M0 0 C9.69107893 -0.3829625 18.95472261 -0.44774125 28.4375 1.8125 C29.49118774 2.0604834 29.49118774 2.0604834 30.56616211 2.31347656 C34.29661745 3.28437316 37.11219747 4.42239621 40 7 C39.67 7.99 39.34 8.98 39 10 C38.42894531 9.81824219 37.85789062 9.63648438 37.26953125 9.44921875 C26.9988298 6.26513802 16.75600507 3.70411771 6 3 C6 2.67 6 2.34 6 2 C3.03 1.505 3.03 1.505 0 1 C0 0.67 0 0.34 0 0 Z " fill="#CECECE" transform="translate(226,220)"/>
<path d="M0 0 C2.475 0.495 2.475 0.495 5 1 C5 1.99 5 2.98 5 4 C5.66 4 6.32 4 7 4 C7.33 8.95 7.66 13.9 8 19 C7.01 19.33 6.02 19.66 5 20 C4.34 19.67 3.68 19.34 3 19 C3 18.01 3 17.02 3 16 C2.34 16 1.68 16 1 16 C0.67 10.72 0.34 5.44 0 0 Z " fill="#E6E6E6" transform="translate(172,154)"/>
<path d="M0 0 C1.65 0.33 3.3 0.66 5 1 C4.67 4.3 4.34 7.6 4 11 C4.33 10.34 4.66 9.68 5 9 C5.99 9.33 6.98 9.66 8 10 C5.75 12.5625 5.75 12.5625 3 15 C0.75 15 0.75 15 -1 14 C-1.33 13.01 -1.66 12.02 -2 11 C-3.98 11.99 -3.98 11.99 -6 13 C-6.66 12.34 -7.32 11.68 -8 11 C-7.01 11 -6.02 11 -5 11 C-4.731875 10.113125 -4.46375 9.22625 -4.1875 8.3125 C-3.08289181 5.23122452 -1.77150856 2.73778595 0 0 Z " fill="#C7C7C7" transform="translate(238,148)"/>
<path d="M0 0 C2.7196301 0.35149936 3.76597787 0.72054702 5.55566406 2.85766602 C6.03745117 3.64842529 6.51923828 4.43918457 7.015625 5.25390625 C7.54414063 6.10791016 8.07265625 6.96191406 8.6171875 7.84179688 C9.15601563 8.73962891 9.69484375 9.63746094 10.25 10.5625 C10.80429687 11.46419922 11.35859375 12.36589844 11.9296875 13.29492188 C13.29750254 15.52351707 14.65359867 17.75842544 16 20 C14.68 21.32 13.36 22.64 12 24 C11.39671875 22.90300781 10.7934375 21.80601562 10.171875 20.67578125 C9.3648274 19.22121872 8.55752208 17.76679917 7.75 16.3125 C7.35425781 15.59126953 6.95851563 14.87003906 6.55078125 14.12695312 C4.74466497 10.88482635 3.02695396 8.03235368 0.640625 5.16796875 C0.09921875 4.45253906 -0.4421875 3.73710937 -1 3 C-0.67 2.01 -0.34 1.02 0 0 Z " fill="#C7C7C7" transform="translate(287,246)"/>
<path d="M0 0 C1.32 0.33 2.64 0.66 4 1 C4.64317031 8.07487342 2.82735898 12.09493185 -1 18 C-1.99 18 -2.98 18 -4 18 C-4 15.69 -4 13.38 -4 11 C-4.66 10.67 -5.32 10.34 -6 10 C-4.02 6.7 -2.04 3.4 0 0 Z " fill="#E0E0E0" transform="translate(261,144)"/>
<path d="M0 0 C0 2.6875 0 2.6875 -1 6 C-3.48019208 8.02924807 -6.15618752 9.5359872 -9 11 C-8.01 12.485 -8.01 12.485 -7 14 C-10 15 -10 15 -12.1875 14.0625 C-12.785625 13.711875 -13.38375 13.36125 -14 13 C-13.43176154 9.02233079 -12.50554193 6.17368645 -10 3 C-6.46966608 1.17179136 -3.98919362 0 0 0 Z " fill="#DADADA" transform="translate(361,200)"/>
<path d="M0 0 C1.875 0.5625 1.875 0.5625 4 2 C5.25 5.625 5.25 5.625 6 9 C6.66 7.68 7.32 6.36 8 5 C8 7.64 8 10.28 8 13 C5.6875 12.9375 5.6875 12.9375 3 12 C1.1875 8.4375 1.1875 8.4375 0 5 C0 8.3 0 11.6 0 15 C-0.99 14.67 -1.98 14.34 -3 14 C-4.48882438 9.92532275 -5.26270217 6.33458585 -5 2 C-4.360625 1.855625 -3.72125 1.71125 -3.0625 1.5625 C-1.02454854 1.18992819 -1.02454854 1.18992819 0 0 Z " fill="#B7B7B7" transform="translate(270,396)"/>
<path d="M0 0 C-1.46780325 5.52021656 -5.39608012 8.73052886 -9.375 12.5625 C-10.04789063 13.22185547 -10.72078125 13.88121094 -11.4140625 14.56054688 C-12.7050271 15.82482816 -13.99882891 17.08622103 -15.29589844 18.34423828 C-17.21659714 20.21045298 -19.11362886 22.09911831 -21 24 C-20.67 22.02 -20.34 20.04 -20 18 C-19.34 18 -18.68 18 -18 18 C-17.80664062 17.28972656 -17.61328125 16.57945312 -17.4140625 15.84765625 C-17.15367188 14.92855469 -16.89328125 14.00945312 -16.625 13.0625 C-16.36976562 12.14597656 -16.11453125 11.22945312 -15.8515625 10.28515625 C-15 8 -15 8 -13 7 C-13 8.65 -13 10.3 -13 12 C-10.69 10.02 -8.38 8.04 -6 6 C-7.32 5.67 -8.64 5.34 -10 5 C-6.75728676 1.53365137 -4.90610505 0 0 0 Z " fill="#868686" transform="translate(93,200)"/>
<path d="M0 0 C0.33 0.33 0.66 0.66 1 1 C1.66 1 2.32 1 3 1 C2.54936121 5.84436703 1.46006039 8.53993961 -2 12 C-4.1875 12.875 -4.1875 12.875 -6 13 C-7 12 -7 12 -7.4375 8.5625 C-7.64847551 4.95941003 -7.64847551 4.95941003 -10 3 C-9.34 2.34 -8.68 1.68 -8 1 C-8 1.66 -8 2.32 -8 3 C-7.05125 2.505 -6.1025 2.01 -5.125 1.5 C-2 0 -2 0 0 0 Z " fill="#B9B9B9" transform="translate(61,233)"/>
<path d="M0 0 C0.99 0.33 1.98 0.66 3 1 C2.34 1.66 1.68 2.32 1 3 C1.99 4.485 1.99 4.485 3 6 C3 9.13355942 2.78525924 11.16471039 0.58984375 13.5 C-0.8890885 14.73069539 -2.44111229 15.87229399 -4 17 C-4 16.34 -4 15.68 -4 15 C-4.99 15.33 -5.98 15.66 -7 16 C-7 15.34 -7 14.68 -7 14 C-6.34 13.67 -5.68 13.34 -5 13 C-5.57584432 10.61435923 -6.22227595 8.33317216 -7 6 C-2.25 1.125 -2.25 1.125 0 0 Z M-4 5 C-4.33 5.66 -4.66 6.32 -5 7 C-4.34 7.66 -3.68 8.32 -3 9 C-2.67 8.34 -2.34 7.68 -2 7 C-2.66 6.34 -3.32 5.68 -4 5 Z M-1 6 C0 8 0 8 0 8 Z " fill="#7A7A7A" transform="translate(64,210)"/>
<path d="M0 0 C2.0625 0.4375 2.0625 0.4375 4 1 C4 1.66 4 2.32 4 3 C4.66 3 5.32 3 6 3 C6 4.32 6 5.64 6 7 C5.071875 7.12375 5.071875 7.12375 4.125 7.25 C1.81562433 7.81258459 1.81562433 7.81258459 0.75 10.0625 C0.5025 10.701875 0.255 11.34125 0 12 C-1.65 11.67 -3.3 11.34 -5 11 C-4.95875 10.2575 -4.9175 9.515 -4.875 8.75 C-5.00398134 5.91241048 -5.57051222 4.41226062 -7 2 C-3 2 -3 2 -1.25 3.5 C-0.8375 3.995 -0.425 4.49 0 5 C-0.2784375 4.0409375 -0.2784375 4.0409375 -0.5625 3.0625 C-0.706875 2.381875 -0.85125 1.70125 -1 1 C-0.67 0.67 -0.34 0.34 0 0 Z " fill="#D9D9D9" transform="translate(315,367)"/>
<path d="M0 0 C2.31 0 4.62 0 7 0 C6.67 2.97 6.34 5.94 6 9 C6.66 8.67 7.32 8.34 8 8 C8.33 7.01 8.66 6.02 9 5 C9.66 5 10.32 5 11 5 C10.125 10.875 10.125 10.875 9 12 C6.5 12.125 6.5 12.125 4 12 C3 11 3 11 2.875 7.5625 C3 4 3 4 4 2 C3.34 2 2.68 2 2 2 C2 3.98 2 5.96 2 8 C1.34 8 0.68 8 0 8 C0 5.36 0 2.72 0 0 Z " fill="#CFCFCF" transform="translate(238,402)"/>
<path d="M0 0 C0.99 0.33 1.98 0.66 3 1 C2.67 1.99 2.34 2.98 2 4 C2.66 4.66 3.32 5.32 4 6 C2.68 6 1.36 6 0 6 C-0.33 7.32 -0.66 8.64 -1 10 C-0.34 10 0.32 10 1 10 C0.67 10.99 0.34 11.98 0 13 C-0.66 13 -1.32 13 -2 13 C-3.66965451 13.31802943 -5.33678518 13.64984951 -7 14 C-7 12.68 -7 11.36 -7 10 C-6.34 9.67 -5.68 9.34 -5 9 C-4.87625 8.05125 -4.7525 7.1025 -4.625 6.125 C-4 3 -4 3 -2.125 1.0625 C-1.42375 0.711875 -0.7225 0.36125 0 0 Z " fill="#666666" transform="translate(72,209)"/>
<path d="M0 0 C3.25543229 0.34879632 4.01873107 1.02133261 6.25 3.5625 C6.8275 4.366875 7.405 5.17125 8 6 C5.86481726 8.90748288 3.71294856 11.61176729 1 14 C-2.9375 14.5 -2.9375 14.5 -6 14 C-5.01 13.67 -4.02 13.34 -3 13 C-2.67 12.34 -2.34 11.68 -2 11 C-1.34 11 -0.68 11 0 11 C0.6814823 9.10820797 0.6814823 9.10820797 1 7 C0.34 6.34 -0.32 5.68 -1 5 C-0.625 2.375 -0.625 2.375 0 0 Z " fill="#ADADAD" transform="translate(201,154)"/>
<path d="M0 0 C0.99 0.33 1.98 0.66 3 1 C5.07663867 7.52657869 2.69225454 11.52250761 -0.359375 17.42578125 C-2 20 -2 20 -5 22 C-5 18.81697412 -4.62114184 18.11807455 -3.0625 15.5 C-0.43187402 10.51761298 -0.20411047 5.55180481 0 0 Z " fill="#959595" transform="translate(222,139)"/>
<path d="M0 0 C1.1446875 0.3403125 1.1446875 0.3403125 2.3125 0.6875 C2.6425 1.6775 2.9725 2.6675 3.3125 3.6875 C2.1875 5.875 2.1875 5.875 0.3125 7.6875 C-2.375 7.9375 -2.375 7.9375 -4.6875 7.6875 C-5.0175 8.3475 -5.3475 9.0075 -5.6875 9.6875 C-6.3475 9.0275 -7.0075 8.3675 -7.6875 7.6875 C-4.79076087 -0.55706522 -4.79076087 -0.55706522 0 0 Z M-1.6875 2.6875 C-1.6875 5.6875 -1.6875 5.6875 -1.6875 5.6875 Z " fill="#DDDDDD" transform="translate(186.6875,392.3125)"/>
<path d="M0 0 C2.32490278 3.63266059 2.39259107 6.76001646 2 11 C1.01 11.66 0.02 12.32 -1 13 C-1.66 12.34 -2.32 11.68 -3 11 C-2.67 10.01 -2.34 9.02 -2 8 C-2.99 8 -3.98 8 -5 8 C-5 8.66 -5 9.32 -5 10 C-5.66 10 -6.32 10 -7 10 C-7.33 8.68 -7.66 7.36 -8 6 C-7.01 6 -6.02 6 -5 6 C-4.67 4.35 -4.34 2.7 -4 1 C-3.01 1.33 -2.02 1.66 -1 2 C-0.67 1.34 -0.34 0.68 0 0 Z M-2 4 C-2.66 4.66 -3.32 5.32 -4 6 C-3.01 6 -2.02 6 -1 6 C-0.67 5.34 -0.34 4.68 0 4 C-0.66 4 -1.32 4 -2 4 Z " fill="#555555" transform="translate(82,199)"/>
<path d="M0 0 C0.33 0 0.66 0 1 0 C1 1.65 1 3.3 1 5 C1.66 5 2.32 5 3 5 C3 5.66 3 6.32 3 7 C3.99 7 4.98 7 6 7 C5.875 8.875 5.875 8.875 5 11 C3 11.66666667 1 12.33333333 -1 13 C-1.96877057 15.03243548 -1.96877057 15.03243548 -2 17 C-2.66 16.34 -3.32 15.68 -4 15 C-4.99 14.67 -5.98 14.34 -7 14 C-5.35 13.67 -3.7 13.34 -2 13 C-1.34 8.71 -0.68 4.42 0 0 Z " fill="#B2B2B2" transform="translate(69,199)"/>
<path d="M0 0 C0.99 0 1.98 0 3 0 C2.29445932 3.66881155 0.72264494 6.70450534 -1 10 C-0.34 10 0.32 10 1 10 C1 10.99 1 11.98 1 13 C-0.65 12.67 -2.3 12.34 -4 12 C-4.93134261 9.47856025 -5.16007332 8.38473764 -4.109375 5.859375 C-3.43648437 4.81523437 -3.43648437 4.81523437 -2.75 3.75 C-2.31171875 3.04359375 -1.8734375 2.3371875 -1.421875 1.609375 C-0.95265625 1.07828125 -0.4834375 0.5471875 0 0 Z " fill="#ADADAD" transform="translate(173,387)"/>
<path d="M0 0 C0.78375 0.2475 1.5675 0.495 2.375 0.75 C2.705 1.41 3.035 2.07 3.375 2.75 C2.055 2.42 0.735 2.09 -0.625 1.75 C-0.295 2.74 0.035 3.73 0.375 4.75 C-0.285 5.41 -0.945 6.07 -1.625 6.75 C-0.635 8.235 -0.635 8.235 0.375 9.75 C-0.945 10.08 -2.265 10.41 -3.625 10.75 C-5.1875 7.9375 -5.1875 7.9375 -6.625 4.75 C-5.35382575 0.93647724 -4.12636977 -0.3929876 0 0 Z " fill="#B1B1B1" transform="translate(329.625,366.25)"/>
<path d="M0 0 C-0.99 0.33 -1.98 0.66 -3 1 C-2.01 1.66 -1.02 2.32 0 3 C-6.3778552 4.17293889 -12.50321562 5.29530838 -19 5 C-15.96944727 2.45547931 -13.31122782 1.2760998 -9.5 0.25 C-8.5615625 -0.01296875 -7.623125 -0.2759375 -6.65625 -0.546875 C-4.00702963 -0.99880083 -2.50751308 -0.875264 0 0 Z " fill="#AFAFAF" transform="translate(25,333)"/>
<path d="M0 0 C0.99 0 1.98 0 3 0 C2.01 3.63 1.02 7.26 0 11 C0.99 10.67 1.98 10.34 3 10 C3 10.99 3 11.98 3 13 C2.01 13.33 1.02 13.66 0 14 C-0.99 13.34 -1.98 12.68 -3 12 C-2.14285714 3.42857143 -2.14285714 3.42857143 0 0 Z " fill="#B4B4B4" transform="translate(205,398)"/>
<path d="M0 0 C3.125 0.25 3.125 0.25 5 1.625 C6.125 3.25 6.125 3.25 6.125 5.25 C5.465 5.25 4.805 5.25 4.125 5.25 C3.795 6.24 3.465 7.23 3.125 8.25 C0.65 7.26 0.65 7.26 -1.875 6.25 C-2.535 6.91 -3.195 7.57 -3.875 8.25 C-3.91741723 5.91705225 -3.91592937 3.58297433 -3.875 1.25 C-2.875 0.25 -2.875 0.25 0 0 Z " fill="#B0B0B0" transform="translate(290.875,389.75)"/>
<path d="M0 0 C2 1 2 1 3 3 C3.66 2.34 4.32 1.68 5 1 C4.75 4.375 4.75 4.375 4 8 C1.9375 9.4375 1.9375 9.4375 0 10 C-0.99 9.34 -1.98 8.68 -3 8 C-2.25 2.25 -2.25 2.25 0 0 Z M0 4 C1 7 1 7 1 7 Z " fill="#C6C6C6" transform="translate(205,414)"/>
<path d="M0 0 C7.34177215 -0.48945148 7.34177215 -0.48945148 10.4375 1.8125 C12 4 12 4 13 7 C11.5625 9.1875 11.5625 9.1875 10 11 C8.68 10.67 7.36 10.34 6 10 C6 9.34 6 8.68 6 8 C7.32 8 8.64 8 10 8 C9.28436734 5.9837767 9.28436734 5.9837767 8 4 C5.94999129 3.19471111 5.94999129 3.19471111 4 3 C4 2.34 4 1.68 4 1 C2.68 0.67 1.36 0.34 0 0 Z " fill="#ABABAB" transform="translate(64,250)"/>
<path d="M0 0 C0.33 0.66 0.66 1.32 1 2 C2.32 2 3.64 2 5 2 C9 6.11111111 9 6.11111111 9 10 C6.69 10 4.38 10 2 10 C1.814375 8.88625 1.814375 8.88625 1.625 7.75 C1.04513299 5.19858515 0.26291261 3.2732427 -1 1 C-0.67 0.67 -0.34 0.34 0 0 Z " fill="#B6B6B6" transform="translate(332,362)"/>
<path d="M0 0 C0.84433594 0.00322266 1.68867188 0.00644531 2.55859375 0.00976562 C3.86763672 0.02233398 3.86763672 0.02233398 5.203125 0.03515625 C6.09128906 0.03966797 6.97945312 0.04417969 7.89453125 0.04882812 C10.08079829 0.06058225 12.26692679 0.07701376 14.453125 0.09765625 C14.453125 0.42765625 14.453125 0.75765625 14.453125 1.09765625 C4.058125 2.58265625 4.058125 2.58265625 -6.546875 4.09765625 C-6.546875 3.43765625 -6.546875 2.77765625 -6.546875 2.09765625 C-7.206875 1.76765625 -7.866875 1.43765625 -8.546875 1.09765625 C-5.6220117 0.25573843 -3.03945844 -0.02053688 0 0 Z " fill="#D7D7D7" transform="translate(225.546875,220.90234375)"/>
<path d="M0 0 C3.12498063 -0.02895976 6.2499269 -0.04678483 9.375 -0.0625 C10.70917969 -0.07506836 10.70917969 -0.07506836 12.0703125 -0.08789062 C13.34648437 -0.09272461 13.34648437 -0.09272461 14.6484375 -0.09765625 C15.43395996 -0.10289307 16.21948242 -0.10812988 17.02880859 -0.11352539 C19 0 19 0 21 1 C21 1.99 21 2.98 21 4 C16.05 3.67 11.1 3.34 6 3 C6 2.67 6 2.34 6 2 C3.03 1.505 3.03 1.505 0 1 C0 0.67 0 0.34 0 0 Z " fill="#B2B2B2" transform="translate(226,220)"/>
<path d="M0 0 C-1.45281065 5.32697239 -5.08111378 8.36402802 -9 12 C-9.66 11.67 -10.32 11.34 -11 11 C-9.68 9.35 -8.36 7.7 -7 6 C-7.99 5.67 -8.98 5.34 -10 5 C-6.75728676 1.53365137 -4.90610505 0 0 0 Z " fill="#959595" transform="translate(93,200)"/>
<path d="M0 0 C0.66 0.33 1.32 0.66 2 1 C2 2.98 2 4.96 2 7 C0.35 6.67 -1.3 6.34 -3 6 C-2.67 6.99 -2.34 7.98 -2 9 C-2.66 9 -3.32 9 -4 9 C-4 9.66 -4 10.32 -4 11 C-4.99 11 -5.98 11 -7 11 C-7 10.01 -7 9.02 -7 8 C-7.66 8.66 -8.32 9.32 -9 10 C-8.42655063 7.13275314 -8.1385485 6.1385485 -6 4 C-6 4.66 -6 5.32 -6 6 C-5.34 6 -4.68 6 -4 6 C-3.71125 5.38125 -3.4225 4.7625 -3.125 4.125 C-2 2 -2 2 0 0 Z " fill="#595959" transform="translate(62,224)"/>
<path d="M0 0 C0.99 0.33 1.98 0.66 3 1 C2.525625 1.886875 2.05125 2.77375 1.5625 3.6875 C0.20262851 6.57042756 -0.54060386 8.87610623 -1 12 C-1.99 11.67 -2.98 11.34 -4 11 C-3.56179109 6.44262737 -3.14958831 3.42346555 0 0 Z " fill="#BCBCBC" transform="translate(160,373)"/>
<path d="M0 0 C0.33 0.66 0.66 1.32 1 2 C1.66 2.33 2.32 2.66 3 3 C1.68 7.29 0.36 11.58 -1 16 C-1.33 15.34 -1.66 14.68 -2 14 C-2.66 14 -3.32 14 -4 14 C-3.21824485 9.15311808 -1.60155722 4.6233633 0 0 Z " fill="#BABABA" transform="translate(168,265)"/>
<path d="M0 0 C1.65 0 3.3 0 5 0 C5.33 1.65 5.66 3.3 6 5 C4.02 5.99 4.02 5.99 2 7 C1.01 6.34 0.02 5.68 -1 5 C-0.67 3.35 -0.34 1.7 0 0 Z " fill="#C6C6C6" transform="translate(116,178)"/>
<path d="M0 0 C0.66 0 1.32 0 2 0 C4.14915785 3.22373677 4.38286803 4.26703674 4 8 C3.34 8.66 2.68 9.32 2 10 C0.68 10 -0.64 10 -2 10 C-1.42415568 7.61435923 -0.77772405 5.33317216 0 3 C0 2.01 0 1.02 0 0 Z " fill="#C6C6C6" transform="translate(350,159)"/>
<path d="M0 0 C0 1.32 0 2.64 0 4 C-0.66 4.66 -1.32 5.32 -2 6 C-4.125 5.625 -4.125 5.625 -6 5 C-6 3.35 -6 1.7 -6 0 C-3.50907189 -1.24546405 -2.58919267 -0.7767578 0 0 Z " fill="#C6C6C6" transform="translate(271,134)"/>
<path d="M0 0 C2.0625 0.75 2.0625 0.75 4 2 C4.33 2.99 4.66 3.98 5 5 C4.34 5.66 3.68 6.32 3 7 C0.375 6.625 0.375 6.625 -2 6 C-2 4.35 -2 2.7 -2 1 C-1.34 0.67 -0.68 0.34 0 0 Z " fill="#CCCCCC" transform="translate(85,220)"/>
<path d="M0 0 C0.14285714 8.71428571 0.14285714 8.71428571 -2 13 C-2.66 12.67 -3.32 12.34 -4 12 C-5.50138812 4.95502499 -5.50138812 4.95502499 -3.6875 1.5 C-2 0 -2 0 0 0 Z " fill="#ABABAB" transform="translate(219,400)"/>
<path d="M0 0 C1.99788438 0.34578768 3.99759451 0.68143549 6 1 C6 1.33 6 1.66 6 2 C0.29309366 2.99250545 -5.21408489 3.10477512 -11 3 C-7.11372369 -0.08221914 -4.84807672 -1.38516478 0 0 Z " fill="#B3B3B3" transform="translate(83,317)"/>
<path d="M0 0 C1.8125 0.125 1.8125 0.125 4 1 C5.75 4.0625 5.75 4.0625 7 7 C5.68 7.33 4.36 7.66 3 8 C0.9375 5.6875 0.9375 5.6875 -1 3 C-0.67 2.01 -0.34 1.02 0 0 Z " fill="#CECECE" transform="translate(287,246)"/>
<path d="M0 0 C0.66 0.66 1.32 1.32 2 2 C-0.24783891 7.17379682 -2.16545537 10.77697025 -7 14 C-6.67 12.35 -6.34 10.7 -6 9 C-5.34 9 -4.68 9 -4 9 C-3.71125 7.88625 -3.4225 6.7725 -3.125 5.625 C-2 2 -2 2 0 0 Z " fill="#7C7C7C" transform="translate(71,223)"/>
<path d="M0 0 C0.66 0.99 1.32 1.98 2 3 C3.32 2.67 4.64 2.34 6 2 C5.67 2.66 5.34 3.32 5 4 C6.32 4.33 7.64 4.66 9 5 C9 5.99 9 6.98 9 8 C3.64951939 7.62671065 1.49087093 6.0042343 -2 2 C-1.34 1.34 -0.68 0.68 0 0 Z " fill="#A7A7A7" transform="translate(179,398)"/>
<path d="M0 0 C0.66 0.33 1.32 0.66 2 1 C1.34 1.66 0.68 2.32 0 3 C0.99 4.485 0.99 4.485 2 6 C0.576875 6.2165625 0.576875 6.2165625 -0.875 6.4375 C-3.8934494 6.82935399 -3.8934494 6.82935399 -6 8 C-6.99 7.34 -7.98 6.68 -9 6 C-6.03 4.02 -3.06 2.04 0 0 Z " fill="#AEAEAE" transform="translate(91,307)"/>
<path d="M0 0 C2.64 0 5.28 0 8 0 C8.33 1.32 8.66 2.64 9 4 C8.01 4.33 7.02 4.66 6 5 C6 4.34 6 3.68 6 3 C4.02 3.33 2.04 3.66 0 4 C0 2.68 0 1.36 0 0 Z " fill="#9A9A9A" transform="translate(73,197)"/>
<path d="M0 0 C2.7343066 2.7343066 2.95340665 4.76993555 3.09765625 8.578125 C3.08605469 9.45984375 3.07445312 10.3415625 3.0625 11.25 C3.05347656 12.14203125 3.04445312 13.0340625 3.03515625 13.953125 C3.02355469 14.62859375 3.01195312 15.3040625 3 16 C2.01 15.34 1.02 14.68 0 14 C-0.08967728 11.66839059 -0.0777346 9.33203812 0 7 C-0.185625 5.88625 -0.37125 4.7725 -0.5625 3.625 C-0.706875 2.75875 -0.85125 1.8925 -1 1 C-0.67 0.67 -0.34 0.34 0 0 Z " fill="#9C9C9C" transform="translate(133,187)"/>
<path d="M0 0 C0.99 0 1.98 0 3 0 C3.33 3.63 3.66 7.26 4 11 C3.01 10.67 2.02 10.34 1 10 C0.67 6.7 0.34 3.4 0 0 Z " fill="#D1D1D1" transform="translate(266,400)"/>
<path d="M0 0 C1.45742463 -0.08096803 2.91612807 -0.13917774 4.375 -0.1875 C5.18710937 -0.22230469 5.99921875 -0.25710937 6.8359375 -0.29296875 C7.55007813 -0.19628906 8.26421875 -0.09960938 9 0 C11 3 11 3 10.625 5.6875 C10.41875 6.450625 10.2125 7.21375 10 8 C8.68 7.34 7.36 6.68 6 6 C6.33 4.68 6.66 3.36 7 2 C4.69 1.67 2.38 1.34 0 1 C0 0.67 0 0.34 0 0 Z " fill="#B0B0B0" transform="translate(363,215)"/>
<path d="M0 0 C0.66 0 1.32 0 2 0 C1.38390949 4.00458831 -0.55060653 6.83019669 -3 10 C-3.99 10 -4.98 10 -6 10 C-4.63312778 6.01328937 -2.84804907 3.11505367 0 0 Z " fill="#B4B4B4" transform="translate(108,214)"/>
<path d="M0 0 C-1.4980087 3.81311305 -3.62648024 5.72483551 -7 8 C-9.8125 8.75 -9.8125 8.75 -12 9 C-12 8.01 -12 7.02 -12 6 C-11.278125 5.7525 -10.55625 5.505 -9.8125 5.25 C-6.40667626 3.73630056 -3.66993587 0 0 0 Z " fill="#909090" transform="translate(308,163)"/>
<path d="M0 0 C0.33 0 0.66 0 1 0 C1.33 1.65 1.66 3.3 2 5 C2.66 3.68 3.32 2.36 4 1 C4 3.64 4 6.28 4 9 C2.35 8.67 0.7 8.34 -1 8 C-1.33 6.35 -1.66 4.7 -2 3 C-1.34 3 -0.68 3 0 3 C0 2.01 0 1.02 0 0 Z " fill="#ABABAB" transform="translate(274,400)"/>
<path d="M0 0 C0.99 0 1.98 0 3 0 C5.03684712 4.07369424 5.0257259 6.58937864 4 11 C3.01 11 2.02 11 1 11 C1.020625 9.9275 1.04125 8.855 1.0625 7.75 C1.0142016 4.85209576 0.86844115 2.71387859 0 0 Z " fill="#ACACAC" transform="translate(100,241)"/>
<path d="M0 0 C1.98 0.495 1.98 0.495 4 1 C3.979375 1.78375 3.95875 2.5675 3.9375 3.375 C3.81315937 5.98114961 3.81315937 5.98114961 5 8 C2.03 7.505 2.03 7.505 -1 7 C-0.67 4.69 -0.34 2.38 0 0 Z M1 3 C2 5 2 5 2 5 Z " fill="#A5A5A5" transform="translate(277,155)"/>
<path d="M0 0 C2 0.25 2 0.25 4 1 C4.33 1.99 4.66 2.98 5 4 C4.67 4.66 4.34 5.32 4 6 C3.01 5.67 2.02 5.34 1 5 C0.67 5.66 0.34 6.32 0 7 C-0.66 7 -1.32 7 -2 7 C-1.125 1.125 -1.125 1.125 0 0 Z " fill="#D1D1D1" transform="translate(195,386)"/>
<path d="M0 0 C0.75 1.625 0.75 1.625 1 4 C-0.8125 7.25 -0.8125 7.25 -3 10 C-3.66 10 -4.32 10 -5 10 C-4.50769231 3.47692308 -4.50769231 3.47692308 -1.9375 1.0625 C-0.9784375 0.5365625 -0.9784375 0.5365625 0 0 Z " fill="#D3D3D3" transform="translate(174,257)"/>
<path d="M0 0 C2.64 0 5.28 0 8 0 C6.7508258 3.45925163 5.32472205 6.14693203 3 9 C3.33 7.35 3.66 5.7 4 4 C1.03 3.505 1.03 3.505 -2 3 C-1.34 2.67 -0.68 2.34 0 2 C0 1.34 0 0.68 0 0 Z " fill="#9A9A9A" transform="translate(343,203)"/>
<path d="M0 0 C7.75 0.75 7.75 0.75 10 3 C9.625 5.125 9.625 5.125 9 7 C8.67 6.34 8.34 5.68 8 5 C6.11736119 4.09656316 6.11736119 4.09656316 3.9375 3.375 C3.20402344 3.11460937 2.47054687 2.85421875 1.71484375 2.5859375 C1.14894531 2.39257812 0.58304688 2.19921875 0 2 C0 1.34 0 0.68 0 0 Z " fill="#AEAEAE" transform="translate(240,135)"/>
<path d="M0 0 C2.64 0.33 5.28 0.66 8 1 C8 1.33 8 1.66 8 2 C6.02 2 4.04 2 2 2 C2.33 5.3 2.66 8.6 3 12 C2.01 12 1.02 12 0 12 C0 8.04 0 4.08 0 0 Z " fill="#909090" transform="translate(236,400)"/>
<path d="M0 0 C1.98 0.495 1.98 0.495 4 1 C4 1.66 4 2.32 4 3 C4.66 3 5.32 3 6 3 C6 4.32 6 5.64 6 7 C5.01 7.33 4.02 7.66 3 8 C2.67 7.01 2.34 6.02 2 5 C1.01 4.34 0.02 3.68 -1 3 C-0.67 2.01 -0.34 1.02 0 0 Z " fill="#A1A1A1" transform="translate(315,367)"/>
<path d="M0 0 C0.66 0 1.32 0 2 0 C2.226875 0.804375 2.45375 1.60875 2.6875 2.4375 C3.120625 3.283125 3.55375 4.12875 4 5 C6.54775306 5.89386164 6.54775306 5.89386164 9 6 C7.25 7.125 7.25 7.125 5 8 C2.33024478 7.05773345 1.01384202 6.01384202 -1 4 C-0.625 1.875 -0.625 1.875 0 0 Z " fill="#AFAFAF" transform="translate(86,275)"/>
<path d="M0 0 C0.66 0.33 1.32 0.66 2 1 C2.625 4.0625 2.625 4.0625 3 7 C2.34 7 1.68 7 1 7 C0.67 10.3 0.34 13.6 0 17 C-0.66 16.67 -1.32 16.34 -2 16 C-1.34 10.72 -0.68 5.44 0 0 Z " fill="#484848" transform="translate(68,192)"/>
<path d="M0 0 C1.32 0 2.64 0 4 0 C4 0.66 4 1.32 4 2 C3.01 2.495 3.01 2.495 2 3 C1.855625 3.804375 1.71125 4.60875 1.5625 5.4375 C1 8 1 8 -2 10 C-2.25 3.375 -2.25 3.375 0 0 Z " fill="#ABABAB" transform="translate(309,379)"/>
<path d="M0 0 C0.33 0.66 0.66 1.32 1 2 C2.93330603 3.09166275 2.93330603 3.09166275 5 4 C5.66 4.33 6.32 4.66 7 5 C6.67 5.66 6.34 6.32 6 7 C5.34 7 4.68 7 4 7 C3.67 7.99 3.34 8.98 3 10 C3.66 10 4.32 10 5 10 C5 10.66 5 11.32 5 12 C4.01 11.67 3.02 11.34 2 11 C1.87625 9.88625 1.7525 8.7725 1.625 7.625 C1.3534187 3.96896323 1.3534187 3.96896323 -1 2 C-0.67 1.34 -0.34 0.68 0 0 Z " fill="#606060" transform="translate(52,234)"/>
<path d="M0 0 C0.33 0 0.66 0 1 0 C1 1.65 1 3.3 1 5 C1.99 5 2.98 5 4 5 C4 5.66 4 6.32 4 7 C4.66 7 5.32 7 6 7 C5.67 8.32 5.34 9.64 5 11 C2 10 2 10 0.8125 8.3125 C-0.19313465 5.45030907 -0.13689641 3.01172092 0 0 Z " fill="#AEAEAE" transform="translate(252,395)"/>
<path d="M0 0 C0.33 0 0.66 0 1 0 C1.33 2.64 1.66 5.28 2 8 C2.66 6.68 3.32 5.36 4 4 C4.66 5.32 5.32 6.64 6 8 C5.34 8 4.68 8 4 8 C3.34 9.32 2.68 10.64 2 12 C1.34 11.67 0.68 11.34 0 11 C0 7.37 0 3.74 0 0 Z " fill="#828282" transform="translate(187,157)"/>
<path d="M0 0 C3.28768825 1.09589608 3.64293383 1.47727309 5.3125 4.3125 C5.67988281 4.90675781 6.04726562 5.50101563 6.42578125 6.11328125 C7 8 7 8 6.10546875 10.23046875 C5.74066406 10.81441406 5.37585938 11.39835938 5 12 C4.16180842 10.37750059 3.3295884 8.75191503 2.5 7.125 C2.0359375 6.22007812 1.571875 5.31515625 1.09375 4.3828125 C0 2 0 2 0 0 Z " fill="#959595" transform="translate(101,225)"/>
<path d="M0 0 C0.99 0.66 1.98 1.32 3 2 C2.625 4.4375 2.625 4.4375 2 7 C1.01 7.495 1.01 7.495 0 8 C-0.66 7.34 -1.32 6.68 -2 6 C-1.34 4.02 -0.68 2.04 0 0 Z " fill="#707070" transform="translate(81,204)"/>
<path d="M0 0 C0.66 0.33 1.32 0.66 2 1 C2 1.66 2 2.32 2 3 C2.66 3 3.32 3 4 3 C4 3.99 4 4.98 4 6 C2.35 5.67 0.7 5.34 -1 5 C-1.33 3.68 -1.66 2.36 -2 1 C-1.34 0.67 -0.68 0.34 0 0 Z " fill="#A5A5A5" transform="translate(170,394)"/>
<path d="M0 0 C5.75 0.875 5.75 0.875 8 2 C8 2.99 8 3.98 8 5 C4.62537285 4.45276317 2.91765 3.9451 0 2 C0 1.34 0 0.68 0 0 Z " fill="#C7C7C7" transform="translate(171,376)"/>
<path d="M0 0 C3.73639216 1.24546405 4.18756513 2.63404953 6 6 C5.01 6 4.02 6 3 6 C2.67 6.66 2.34 7.32 2 8 C0.4375 5.6875 0.4375 5.6875 -1 3 C-0.67 2.01 -0.34 1.02 0 0 Z " fill="#A3A3A3" transform="translate(309,368)"/>
<path d="M0 0 C0.78375 0.2475 1.5675 0.495 2.375 0.75 C2.705 1.41 3.035 2.07 3.375 2.75 C2.055 2.42 0.735 2.09 -0.625 1.75 C-0.295 2.74 0.035 3.73 0.375 4.75 C-0.945 5.08 -2.265 5.41 -3.625 5.75 C-3.625 5.09 -3.625 4.43 -3.625 3.75 C-4.285 3.09 -4.945 2.43 -5.625 1.75 C-2.625 -0.25 -2.625 -0.25 0 0 Z " fill="#848484" transform="translate(329.625,366.25)"/>
<path d="M0 0 C0.66 0 1.32 0 2 0 C3.25 6.625 3.25 6.625 1 10 C0 9 0 9 -0.09765625 6.93359375 C-0.08605469 6.10988281 -0.07445312 5.28617188 -0.0625 4.4375 C-0.05347656 3.61121094 -0.04445312 2.78492188 -0.03515625 1.93359375 C-0.02355469 1.29550781 -0.01195312 0.65742188 0 0 Z " fill="#D2D2D2" transform="translate(223,140)"/>
<path d="M0 0 C1.8125 2.0625 1.8125 2.0625 3 4 C2.43796875 3.85691406 1.8759375 3.71382812 1.296875 3.56640625 C-1.04545453 2.98879098 -3.39417659 2.45716693 -5.75 1.9375 C-6.54921875 1.76089844 -7.3484375 1.58429688 -8.171875 1.40234375 C-8.77515625 1.26957031 -9.3784375 1.13679687 -10 1 C-10 0.67 -10 0.34 -10 0 C-6.33163196 -0.94329464 -3.62007147 -1.2384455 0 0 Z " fill="#AFAFAF" transform="translate(266,140)"/>
<path d="M0 0 C0.99 0 1.98 0 3 0 C3.6875 2.75 3.6875 2.75 4 6 C2.5625 8.375 2.5625 8.375 1 10 C1 7.69 1 5.38 1 3 C0.34 2.67 -0.32 2.34 -1 2 C-0.67 1.34 -0.34 0.68 0 0 Z " fill="#ABABAB" transform="translate(258,389)"/>
<path d="M0 0 C0.66 0 1.32 0 2 0 C1.125 5.875 1.125 5.875 0 7 C-1.66617115 7.04063832 -3.33388095 7.042721 -5 7 C-4.34 6.67 -3.68 6.34 -3 6 C-3 5.34 -3 4.68 -3 4 C-2.34 3.67 -1.68 3.34 -1 3 C-0.67 2.01 -0.34 1.02 0 0 Z " fill="#ACACAC" transform="translate(247,407)"/>
<path d="M0 0 C0.33 0 0.66 0 1 0 C1.33 2.97 1.66 5.94 2 9 C1.01 9 0.02 9 -1 9 C-1.33 7.02 -1.66 5.04 -2 3 C-1.34 3 -0.68 3 0 3 C0 2.01 0 1.02 0 0 Z " fill="#A9A9A9" transform="translate(263,403)"/>
<path d="M0 0 C2.125 0.375 2.125 0.375 4 1 C2.42105792 3.36841312 1.0245738 5.06745228 -1 7 C-1.33 6.34 -1.66 5.68 -2 5 C-2.99 5.495 -2.99 5.495 -4 6 C-2.84826645 3.53199953 -1.95216435 1.95216435 0 0 Z " fill="#9C9C9C" transform="translate(184,392)"/>
<path d="M0 0 C0.66 1.32 1.32 2.64 2 4 C0.35 5.98 -1.3 7.96 -3 10 C-4.24546405 7.50907189 -3.7767578 6.58919267 -3 4 C-2.34 4 -1.68 4 -1 4 C-0.67 2.68 -0.34 1.36 0 0 Z " fill="#999999" transform="translate(76,214)"/>
<path d="M0 0 C2 1 2 1 3 3 C3.66 2.34 4.32 1.68 5 1 C4.67 3.31 4.34 5.62 4 8 C2.02 6.35 0.04 4.7 -2 3 C-1.34 2.01 -0.68 1.02 0 0 Z " fill="#959595" transform="translate(205,414)"/>
<path d="M0 0 C0.99 0.33 1.98 0.66 3 1 C3.33 2.65 3.66 4.3 4 6 C2.68 6.33 1.36 6.66 0 7 C0 4.69 0 2.38 0 0 Z " fill="#CACACA" transform="translate(278,401)"/>
<path d="M0 0 C0.99 0.33 1.98 0.66 3 1 C2.6875 3.375 2.6875 3.375 2 6 C1.01 6.66 0.02 7.32 -1 8 C-0.67 5.36 -0.34 2.72 0 0 Z " fill="#BDBDBD" transform="translate(210,399)"/>
<path d="M0 0 C0.99 0.99 1.98 1.98 3 3 C2.01 4.485 2.01 4.485 1 6 C-0.32 6 -1.64 6 -3 6 C-3 3 -3 3 -1.5 1.3125 C-0.7575 0.6628125 -0.7575 0.6628125 0 0 Z " fill="#B0B0B0" transform="translate(161,389)"/>
<path d="M0 0 C1.875 0.25 1.875 0.25 4 1 C5.25 3.0625 5.25 3.0625 6 5 C5.34 5 4.68 5 4 5 C3.67 5.66 3.34 6.32 3 7 C0 2.25 0 2.25 0 0 Z " fill="#BABABA" transform="translate(319,374)"/>
<path d="M0 0 C0 0.66 0 1.32 0 2 C-4.455 3.485 -4.455 3.485 -9 5 C-8.67 3.68 -8.34 2.36 -8 1 C-2.25 0 -2.25 0 0 0 Z " fill="#ACACAC" transform="translate(493,247)"/>
<path d="M0 0 C0.66 0.66 1.32 1.32 2 2 C0.35 3.65 -1.3 5.3 -3 7 C-3.99 6.34 -4.98 5.68 -6 5 C-4.02 3.35 -2.04 1.7 0 0 Z " fill="#A7A7A7" transform="translate(118,188)"/>
<path d="M0 0 C0.99 0 1.98 0 3 0 C3 1.98 3 3.96 3 6 C2.34 5.01 1.68 4.02 1 3 C0.01 3.66 -0.98 4.32 -2 5 C-2.66 4.67 -3.32 4.34 -4 4 C-3.67 3.01 -3.34 2.02 -3 1 C-2.34 1 -1.68 1 -1 1 C-0.67 0.67 -0.34 0.34 0 0 Z " fill="#B1B1B1" transform="translate(254,155)"/>
<path d="M0 0 C0.33 0.66 0.66 1.32 1 2 C2.32 1.34 3.64 0.68 5 0 C5.66 0.66 6.32 1.32 7 2 C6.01 3.32 5.02 4.64 4 6 C3.34 5.67 2.68 5.34 2 5 C2 4.34 2 3.68 2 3 C1.34 3 0.68 3 0 3 C0 2.01 0 1.02 0 0 Z " fill="#929292" transform="translate(192,391)"/>
<path d="M0 0 C2.475 0.99 2.475 0.99 5 2 C4.67 2.99 4.34 3.98 4 5 C2.68 5 1.36 5 0 5 C-0.33 4.34 -0.66 3.68 -1 3 C-0.34 2.67 0.32 2.34 1 2 C0.67 1.34 0.34 0.68 0 0 Z " fill="#DCDCDC" transform="translate(329,368)"/>
<path d="M0 0 C0.66 0.66 1.32 1.32 2 2 C1.01 3.32 0.02 4.64 -1 6 C-2.32 5.67 -3.64 5.34 -5 5 C-5 4.34 -5 3.68 -5 3 C-3.68 3 -2.36 3 -1 3 C-0.67 2.01 -0.34 1.02 0 0 Z " fill="#9D9D9D" transform="translate(75,255)"/>
<path d="M0 0 C0.33 0 0.66 0 1 0 C1 1.65 1 3.3 1 5 C0.01 5.33 -0.98 5.66 -2 6 C-2.66 5.67 -3.32 5.34 -4 5 C-3.67 3.68 -3.34 2.36 -3 1 C-2.01 1.33 -1.02 1.66 0 2 C0 1.34 0 0.68 0 0 Z " fill="#D8D8D8" transform="translate(59,239)"/>
<path d="M0 0 C-0.33 0.99 -0.66 1.98 -1 3 C-1.66 3 -2.32 3 -3 3 C-4.66965451 3.31802943 -6.33678518 3.64984951 -8 4 C-7.67 3.01 -7.34 2.02 -7 1 C-4 0 -4 0 0 0 Z " fill="#595959" transform="translate(73,219)"/>
<path d="M0 0 C1.65 0 3.3 0 5 0 C5 0.66 5 1.32 5 2 C3.37373596 3.38232443 1.7074998 4.71937515 0 6 C-1 3 -1 3 0 0 Z " fill="#DDDDDD" transform="translate(207,412)"/>
<path d="M0 0 C0.99 0 1.98 0 3 0 C3.66 1.65 4.32 3.3 5 5 C4.01 5.33 3.02 5.66 2 6 C0 3 0 3 0 0 Z " fill="#B0B0B0" transform="translate(296,387)"/>
<path d="M0 0 C0.99 0 1.98 0 3 0 C3.66 1.65 4.32 3.3 5 5 C4.01 5.33 3.02 5.66 2 6 C0 3 0 3 0 0 Z " fill="#BFBFBF" transform="translate(311,382)"/>
<path d="M0 0 C0.99 0 1.98 0 3 0 C3.33 1.65 3.66 3.3 4 5 C2.68 5 1.36 5 0 5 C0 3.35 0 1.7 0 0 Z " fill="#A5A5A5" transform="translate(156,379)"/>
<path d="M0 0 C1.32 1.65 2.64 3.3 4 5 C3.01 5.495 3.01 5.495 2 6 C1.67 6.66 1.34 7.32 1 8 C0.26919734 6.02253397 -0.39421747 4.01927511 -1 2 C-0.67 1.34 -0.34 0.68 0 0 Z " fill="#B5B5B5" transform="translate(316,376)"/>
<path d="M0 0 C-3.53411321 2.12046792 -6.94393835 2.53199289 -11 3 C-6.7849044 -0.23157329 -5.27490657 -1.24931998 0 0 Z " fill="#9E9E9E" transform="translate(281,164)"/>
<path d="M0 0 C0.33 0.99 0.66 1.98 1 3 C-2.22791555 5.1519437 -3.28400809 5.20086443 -7 5 C-6.34 4.67 -5.68 4.34 -5 4 C-4.67 3.34 -4.34 2.68 -4 2 C-1.9375 0.875 -1.9375 0.875 0 0 Z " fill="#AFAFAF" transform="translate(265,158)"/>
<path d="M0 0 C0.33 2.31 0.66 4.62 1 7 C-0.32 6.34 -1.64 5.68 -3 5 C-3 3.68 -3 2.36 -3 1 C-1 0 -1 0 0 0 Z " fill="#DCDCDC" transform="translate(177,396)"/>
<path d="M0 0 C1.32 0.66 2.64 1.32 4 2 C4 2.99 4 3.98 4 5 C1.525 4.01 1.525 4.01 -1 3 C-0.67 2.01 -0.34 1.02 0 0 Z " fill="#B3B3B3" transform="translate(301,384)"/>
<path d="M0 0 C0.66 0.33 1.32 0.66 2 1 C0.75023244 4.65316671 0.32901247 5.78065836 -3 8 C-3 4.42424104 -1.91159393 2.94704065 0 0 Z " fill="#ABABAB" transform="translate(220,153)"/>
<path d="" fill="#323232" transform="translate(0,0)"/>
<path d="" fill="#2E2E2E" transform="translate(0,0)"/>
</svg>
